<?xml version="1.0" encoding="UTF-8" standalone="no"?>
<svg width="1100px" height="2400px" viewBox="0 0 1100 2400" version="1.1" xmlns="http://www.w3.org/2000/svg" xmlns:xlink="http://www.w3.org/1999/xlink">
    <!-- Generator: Sketch 43.2 (39069) - http://www.bohemiancoding.com/sketch -->
    <title>H! House of Ideas Listed Events</title>
    <desc>Created with Sketch.</desc>
    <defs></defs>
    <g id="Concept-Simplified" stroke="none" stroke-width="1" fill="none" fill-rule="evenodd">
        <g id="Slices"></g>
        <g id="Background" transform="translate(-18.000000, 0.000000)">
            <g id="Squares-of-diversity" transform="translate(18.000000, 1600.000000)">
                <polygon id="Fill-1" fill="#E99D9B" points="300 200 400 200 400 300 300 300"></polygon>
                <polygon id="Fill-1-copy" fill="#E99D9B" points="1000 100 1100 100 1100 200 1000 200"></polygon>
                <polygon id="Fill-1-copy" fill="#E99D9B" points="200 0 300 0 300 100 200 100"></polygon>
                <polygon id="Fill-1-copy-2" fill="#E99D9B" points="800 200 900 200 900 300 800 300"></polygon>
                <polygon id="Fill-1-copy" fill="#E99D9B" points="600 300 700 300 700 400 600 400"></polygon>
                <polygon id="Fill-1-copy-2" fill="#E99D9B" points="700 0 800 0 800 100 700 100"></polygon>
                <polygon id="Fill-2" fill="#E75646" points="400 300 500 300 500 400 400 400"></polygon>
                <polygon id="Fill-2-copy" fill="#E75646" points="500 0 600 0 600 100 500 100"></polygon>
                <polygon id="Fill-2-copy" fill="#E75646" points="600 100 700 100 700 200 600 200"></polygon>
                <polygon id="Fill-3" fill="#F0855A" points="200 200 300 200 300 300 200 300"></polygon>
                <polygon id="Fill-4" fill="#EC5F4C" points="300 300 400 300 400 400 300 400"></polygon>
                <polygon id="Fill-4-copy" fill="#EC5F4C" points="800 300 900 300 900 400 800 400"></polygon>
                <polygon id="Fill-4-copy" fill="#EC5F4C" points="700 100 800 100 800 200 700 200"></polygon>
                <polygon id="Fill-4-copy-2" fill="#EC5F4C" points="900 0 1000 0 1000 100 900 100"></polygon>
                <polygon id="Fill-4-copy" fill="#EC5F4C" points="100 300 200 300 200 400 100 400"></polygon>
                <polygon id="Fill-4-copy" fill="#EC5F4C" points="0 100 100 100 100 200 0 200"></polygon>
                <polygon id="Fill-5" fill="#8FCDC5" points="0 300 100 300 100 400 0 400"></polygon>
                <polygon id="Fill-5-copy" fill="#8FCDC5" points="500 200 600 200 600 300 500 300"></polygon>
                <polygon id="Fill-5-copy-2" fill="#8FCDC5" points="1000 300 1100 300 1100 400 1000 400"></polygon>
                <polygon id="Fill-6" fill="#F8D4E7" points="300 0 400 0 400 100 300 100"></polygon>
                <polygon id="Fill-6-copy" fill="#F8D4E7" points="500 100 600 100 600 200 500 200"></polygon>
                <polygon id="Fill-6-copy-2" fill="#F8D4E7" points="600 200 700 200 700 300 600 300"></polygon>
                <polygon id="Fill-6-copy-3" fill="#F8D4E7" points="1000 0 1100 0 1100 100 1000 100"></polygon>
                <polygon id="Fill-6-copy-3" fill="#F8D4E7" points="200 300 300 300 300 400 200 400"></polygon>
                <polygon id="Fill-6-copy" fill="#F8D4E7" points="100 100 200 100 200 200 100 200"></polygon>
                <polygon id="Fill-7" fill="#F0A8BD" points="300 100 400 100 400 200 300 200"></polygon>
                <polygon id="Fill-7-copy" fill="#F0A8BD" points="900 100 1000 100 1000 200 900 200"></polygon>
                <polygon id="Fill-8" fill="#F9BF7C" points="100 200 200 200 200 300 100 300"></polygon>
                <polygon id="Fill-8-copy" fill="#F9BF7C" points="900 200 1000 200 1000 300 900 300"></polygon>
                <polygon id="Fill-8-copy" fill="#F9BF7C" points="400 0 500 0 500 100 400 100"></polygon>
                <polygon id="Fill-8-copy-2" fill="#F9BF7C" points="700 300 800 300 800 400 700 400"></polygon>
                <polygon id="Fill-9" fill="#BA4364" points="500 300 600 300 600 400 500 400"></polygon>
                <polygon id="Fill-9-copy" fill="#BA4364" points="800 0 900 0 900 100 800 100"></polygon>
                <polygon id="Fill-10" fill="#9ED8F4" points="400 100 500 100 500 200 400 200"></polygon>
                <polygon id="Fill-10-copy" fill="#F3A6BC" points="0 0 100 0 100 100 0 100"></polygon>
                <polygon id="Fill-10-copy" fill="#9ED8F4" points="600 0 700 0 700 100 600 100"></polygon>
                <polygon id="Fill-11" fill="#FFE78D" points="0 200 100 200 100 300 0 300"></polygon>
                <polygon id="Fill-11-copy" fill="#FFE78D" points="100 0 200 0 200 100 100 100"></polygon>
                <polygon id="Fill-11-copy" fill="#FFE78D" points="400 200 500 200 500 300 400 300"></polygon>
                <polygon id="Fill-11-copy-2" fill="#FFE78D" points="700 200 800 200 800 300 700 300"></polygon>
                <polygon id="Fill-11-copy-3" fill="#FFE78D" points="1000 200 1100 200 1100 300 1000 300"></polygon>
                <polygon id="Fill-12" fill="#FFE657" points="200 100 300 100 300 200 200 200"></polygon>
                <polygon id="Fill-12-copy" fill="#FFE657" points="800 100 900 100 900 200 800 200"></polygon>
                <polygon id="Fill-12-copy-2" fill="#FFE657" points="900 300 1000 300 1000 400 900 400"></polygon>
            </g>
            <g id="Squares-of-diversity" transform="translate(18.000000, 2000.000000)">
                <polygon id="Fill-1" fill="#E99D9B" points="300 200 400 200 400 300 300 300"></polygon>
                <polygon id="Fill-1-copy" fill="#E99D9B" points="1000 100 1100 100 1100 200 1000 200"></polygon>
                <polygon id="Fill-1-copy" fill="#E99D9B" points="200 0 300 0 300 100 200 100"></polygon>
                <polygon id="Fill-1-copy-2" fill="#E99D9B" points="800 200 900 200 900 300 800 300"></polygon>
                <polygon id="Fill-1-copy" fill="#E99D9B" points="600 300 700 300 700 400 600 400"></polygon>
                <polygon id="Fill-1-copy-2" fill="#E99D9B" points="700 0 800 0 800 100 700 100"></polygon>
                <polygon id="Fill-2" fill="#E75646" points="400 300 500 300 500 400 400 400"></polygon>
                <polygon id="Fill-2-copy" fill="#E75646" points="500 0 600 0 600 100 500 100"></polygon>
                <polygon id="Fill-2-copy" fill="#E75646" points="600 100 700 100 700 200 600 200"></polygon>
                <polygon id="Fill-3" fill="#F0855A" points="200 200 300 200 300 300 200 300"></polygon>
                <polygon id="Fill-4" fill="#EC5F4C" points="300 300 400 300 400 400 300 400"></polygon>
                <polygon id="Fill-4-copy" fill="#EC5F4C" points="800 300 900 300 900 400 800 400"></polygon>
                <polygon id="Fill-4-copy" fill="#EC5F4C" points="700 100 800 100 800 200 700 200"></polygon>
                <polygon id="Fill-4-copy-2" fill="#EC5F4C" points="900 0 1000 0 1000 100 900 100"></polygon>
                <polygon id="Fill-4-copy" fill="#EC5F4C" points="100 300 200 300 200 400 100 400"></polygon>
                <polygon id="Fill-4-copy" fill="#EC5F4C" points="0 100 100 100 100 200 0 200"></polygon>
                <polygon id="Fill-5" fill="#8FCDC5" points="0 300 100 300 100 400 0 400"></polygon>
                <polygon id="Fill-5-copy" fill="#8FCDC5" points="500 200 600 200 600 300 500 300"></polygon>
                <polygon id="Fill-5-copy-2" fill="#8FCDC5" points="1000 300 1100 300 1100 400 1000 400"></polygon>
                <polygon id="Fill-6" fill="#F8D4E7" points="300 0 400 0 400 100 300 100"></polygon>
                <polygon id="Fill-6-copy" fill="#F8D4E7" points="500 100 600 100 600 200 500 200"></polygon>
                <polygon id="Fill-6-copy-2" fill="#F8D4E7" points="600 200 700 200 700 300 600 300"></polygon>
                <polygon id="Fill-6-copy-3" fill="#F8D4E7" points="1000 0 1100 0 1100 100 1000 100"></polygon>
                <polygon id="Fill-6-copy-3" fill="#F8D4E7" points="200 300 300 300 300 400 200 400"></polygon>
                <polygon id="Fill-6-copy" fill="#F8D4E7" points="100 100 200 100 200 200 100 200"></polygon>
                <polygon id="Fill-7" fill="#F0A8BD" points="300 100 400 100 400 200 300 200"></polygon>
                <polygon id="Fill-7-copy" fill="#F0A8BD" points="900 100 1000 100 1000 200 900 200"></polygon>
                <polygon id="Fill-8" fill="#F9BF7C" points="100 200 200 200 200 300 100 300"></polygon>
                <polygon id="Fill-8-copy" fill="#F9BF7C" points="900 200 1000 200 1000 300 900 300"></polygon>
                <polygon id="Fill-8-copy" fill="#F9BF7C" points="400 0 500 0 500 100 400 100"></polygon>
                <polygon id="Fill-8-copy-2" fill="#F9BF7C" points="700 300 800 300 800 400 700 400"></polygon>
                <polygon id="Fill-9" fill="#BA4364" points="500 300 600 300 600 400 500 400"></polygon>
                <polygon id="Fill-9-copy" fill="#BA4364" points="800 0 900 0 900 100 800 100"></polygon>
                <polygon id="Fill-10" fill="#9ED8F4" points="400 100 500 100 500 200 400 200"></polygon>
                <polygon id="Fill-10-copy" fill="#9ED8F4" points="0 0 100 0 100 100 0 100"></polygon>
                <polygon id="Fill-10-copy" fill="#9ED8F4" points="600 0 700 0 700 100 600 100"></polygon>
                <polygon id="Fill-11" fill="#FFE78D" points="0 200 100 200 100 300 0 300"></polygon>
                <polygon id="Fill-11-copy" fill="#FFE78D" points="100 0 200 0 200 100 100 100"></polygon>
                <polygon id="Fill-11-copy" fill="#FFE78D" points="400 200 500 200 500 300 400 300"></polygon>
                <polygon id="Fill-11-copy-2" fill="#FFE78D" points="700 200 800 200 800 300 700 300"></polygon>
                <polygon id="Fill-11-copy-3" fill="#FFE78D" points="1000 200 1100 200 1100 300 1000 300"></polygon>
                <polygon id="Fill-12" fill="#FFE657" points="200 100 300 100 300 200 200 200"></polygon>
                <polygon id="Fill-12-copy" fill="#FFE657" points="800 100 900 100 900 200 800 200"></polygon>
                <polygon id="Fill-12-copy-2" fill="#FFE657" points="900 300 1000 300 1000 400 900 400"></polygon>
            </g>
            <g id="Squares-of-diversity" transform="translate(18.000000, 1200.000000)">
                <polygon id="Fill-1" fill="#E99D9B" points="300 200 400 200 400 300 300 300"></polygon>
                <polygon id="Fill-1-copy" fill="#E99D9B" points="1000 100 1100 100 1100 200 1000 200"></polygon>
                <polygon id="Fill-1-copy" fill="#E99D9B" points="200 0 300 0 300 100 200 100"></polygon>
                <polygon id="Fill-1-copy-2" fill="#E99D9B" points="800 200 900 200 900 300 800 300"></polygon>
                <polygon id="Fill-1-copy" fill="#E99D9B" points="600 300 700 300 700 400 600 400"></polygon>
                <polygon id="Fill-1-copy-2" fill="#E99D9B" points="700 0 800 0 800 100 700 100"></polygon>
                <polygon id="Fill-2" fill="#E75646" points="400 300 500 300 500 400 400 400"></polygon>
                <polygon id="Fill-2-copy" fill="#E75646" points="500 0 600 0 600 100 500 100"></polygon>
                <polygon id="Fill-2-copy" fill="#E75646" points="600 100 700 100 700 200 600 200"></polygon>
                <polygon id="Fill-3" fill="#FFE78D" points="200 200 300 200 300 300 200 300"></polygon>
                <polygon id="Fill-4" fill="#EC5F4C" points="300 300 400 300 400 400 300 400"></polygon>
                <polygon id="Fill-4-copy" fill="#EC5F4C" points="800 300 900 300 900 400 800 400"></polygon>
                <polygon id="Fill-4-copy" fill="#EC5F4C" points="700 100 800 100 800 200 700 200"></polygon>
                <polygon id="Fill-4-copy-2" fill="#EC5F4C" points="900 0 1000 0 1000 100 900 100"></polygon>
                <polygon id="Fill-4-copy" fill="#EC5F4C" points="100 300 200 300 200 400 100 400"></polygon>
                <polygon id="Fill-4-copy" fill="#EC5F4C" points="0 100 100 100 100 200 0 200"></polygon>
                <polygon id="Fill-5" fill="#8FCDC5" points="0 300 100 300 100 400 0 400"></polygon>
                <polygon id="Fill-5-copy" fill="#8FCDC5" points="500 200 600 200 600 300 500 300"></polygon>
                <polygon id="Fill-5-copy-2" fill="#8FCDC5" points="1000 300 1100 300 1100 400 1000 400"></polygon>
                <polygon id="Fill-6" fill="#F8D4E7" points="300 0 400 0 400 100 300 100"></polygon>
                <polygon id="Fill-6-copy" fill="#F8D4E7" points="500 100 600 100 600 200 500 200"></polygon>
                <polygon id="Fill-6-copy-2" fill="#F8D4E7" points="600 200 700 200 700 300 600 300"></polygon>
                <polygon id="Fill-6-copy-3" fill="#F8D4E7" points="1000 0 1100 0 1100 100 1000 100"></polygon>
                <polygon id="Fill-6-copy-3" fill="#F8D4E7" points="200 300 300 300 300 400 200 400"></polygon>
                <polygon id="Fill-6-copy" fill="#F8D4E7" points="100 100 200 100 200 200 100 200"></polygon>
                <polygon id="Fill-7" fill="#F0A8BD" points="300 100 400 100 400 200 300 200"></polygon>
                <polygon id="Fill-7-copy" fill="#F0A8BD" points="900 100 1000 100 1000 200 900 200"></polygon>
                <polygon id="Fill-8" fill="#F9BF7C" points="100 200 200 200 200 300 100 300"></polygon>
                <polygon id="Fill-8-copy" fill="#F9BF7C" points="900 200 1000 200 1000 300 900 300"></polygon>
                <polygon id="Fill-8-copy" fill="#F9BF7C" points="400 0 500 0 500 100 400 100"></polygon>
                <polygon id="Fill-8-copy-2" fill="#F9BF7C" points="700 300 800 300 800 400 700 400"></polygon>
                <polygon id="Fill-9" fill="#BA4364" points="500 300 600 300 600 400 500 400"></polygon>
                <polygon id="Fill-9-copy" fill="#BA4364" points="800 0 900 0 900 100 800 100"></polygon>
                <polygon id="Fill-10" fill="#9ED8F4" points="400 100 500 100 500 200 400 200"></polygon>
                <polygon id="Fill-10-copy" fill="#9ED8F4" points="0 0 100 0 100 100 0 100"></polygon>
                <polygon id="Fill-10-copy" fill="#9ED8F4" points="600 0 700 0 700 100 600 100"></polygon>
                <polygon id="Fill-11" fill="#FFE78D" points="0 200 100 200 100 300 0 300"></polygon>
                <polygon id="Fill-11-copy" fill="#ED9C9A" points="100 0 200 0 200 100 100 100"></polygon>
                <polygon id="Fill-11-copy" fill="#FFE78D" points="400 200 500 200 500 300 400 300"></polygon>
                <polygon id="Fill-11-copy-2" fill="#FFE78D" points="700 200 800 200 800 300 700 300"></polygon>
                <polygon id="Fill-11-copy-3" fill="#FFE78D" points="1000 200 1100 200 1100 300 1000 300"></polygon>
                <polygon id="Fill-12" fill="#FFE657" points="200 100 300 100 300 200 200 200"></polygon>
                <polygon id="Fill-12-copy" fill="#FFE657" points="800 100 900 100 900 200 800 200"></polygon>
                <polygon id="Fill-12-copy-2" fill="#FFE657" points="900 300 1000 300 1000 400 900 400"></polygon>
            </g>
            <g id="Squares-of-diversity" transform="translate(18.000000, 800.000000)">
                <polygon id="Fill-1" fill="#E99D9B" points="300 200 400 200 400 300 300 300"></polygon>
                <polygon id="Fill-1-copy" fill="#E99D9B" points="1000 100 1100 100 1100 200 1000 200"></polygon>
                <polygon id="Fill-1-copy" fill="#E99D9B" points="200 0 300 0 300 100 200 100"></polygon>
                <polygon id="Fill-1-copy-2" fill="#E99D9B" points="800 200 900 200 900 300 800 300"></polygon>
                <polygon id="Fill-1-copy" fill="#E99D9B" points="600 300 700 300 700 400 600 400"></polygon>
                <polygon id="Fill-1-copy-2" fill="#E99D9B" points="700 0 800 0 800 100 700 100"></polygon>
                <polygon id="Fill-2" fill="#E75646" points="400 300 500 300 500 400 400 400"></polygon>
                <polygon id="Fill-2-copy" fill="#E75646" points="500 0 600 0 600 100 500 100"></polygon>
                <polygon id="Fill-2-copy" fill="#E75646" points="600 100 700 100 700 200 600 200"></polygon>
                <polygon id="Fill-3" fill="#F0855A" points="200 200 300 200 300 300 200 300"></polygon>
                <polygon id="Fill-4" fill="#EC5F4C" points="300 300 400 300 400 400 300 400"></polygon>
                <polygon id="Fill-4-copy" fill="#EC5F4C" points="800 300 900 300 900 400 800 400"></polygon>
                <polygon id="Fill-4-copy" fill="#EC5F4C" points="700 100 800 100 800 200 700 200"></polygon>
                <polygon id="Fill-4-copy-2" fill="#EC5F4C" points="900 0 1000 0 1000 100 900 100"></polygon>
                <polygon id="Fill-4-copy" fill="#EC5F4C" points="100 300 200 300 200 400 100 400"></polygon>
                <polygon id="Fill-4-copy" fill="#EC5F4C" points="0 100 100 100 100 200 0 200"></polygon>
                <polygon id="Fill-5" fill="#F9D3E7" points="0 300 100 300 100 400 0 400"></polygon>
                <polygon id="Fill-5-copy" fill="#8FCDC5" points="500 200 600 200 600 300 500 300"></polygon>
                <polygon id="Fill-5-copy-2" fill="#8FCDC5" points="1000 300 1100 300 1100 400 1000 400"></polygon>
                <polygon id="Fill-6" fill="#F8D4E7" points="300 0 400 0 400 100 300 100"></polygon>
                <polygon id="Fill-6-copy" fill="#F8D4E7" points="500 100 600 100 600 200 500 200"></polygon>
                <polygon id="Fill-6-copy-2" fill="#F8D4E7" points="600 200 700 200 700 300 600 300"></polygon>
                <polygon id="Fill-6-copy-3" fill="#F8D4E7" points="1000 0 1100 0 1100 100 1000 100"></polygon>
                <polygon id="Fill-6-copy-3" fill="#FFEA8D" points="200 300 300 300 300 400 200 400"></polygon>
                <polygon id="Fill-6-copy" fill="#F8D4E7" points="100 100 200 100 200 200 100 200"></polygon>
                <polygon id="Fill-7" fill="#F0A8BD" points="300 100 400 100 400 200 300 200"></polygon>
                <polygon id="Fill-7-copy" fill="#F0A8BD" points="900 100 1000 100 1000 200 900 200"></polygon>
                <polygon id="Fill-8" fill="#F9BF7C" points="100 200 200 200 200 300 100 300"></polygon>
                <polygon id="Fill-8-copy" fill="#F9BF7C" points="900 200 1000 200 1000 300 900 300"></polygon>
                <polygon id="Fill-8-copy" fill="#F9BF7C" points="400 0 500 0 500 100 400 100"></polygon>
                <polygon id="Fill-8-copy-2" fill="#F9BF7C" points="700 300 800 300 800 400 700 400"></polygon>
                <polygon id="Fill-9" fill="#BA4364" points="500 300 600 300 600 400 500 400"></polygon>
                <polygon id="Fill-9-copy" fill="#BA4364" points="800 0 900 0 900 100 800 100"></polygon>
                <polygon id="Fill-10" fill="#9ED8F4" points="400 100 500 100 500 200 400 200"></polygon>
                <polygon id="Fill-10-copy" fill="#9ED8F4" points="0 0 100 0 100 100 0 100"></polygon>
                <polygon id="Fill-10-copy" fill="#9ED8F4" points="600 0 700 0 700 100 600 100"></polygon>
                <polygon id="Fill-11" fill="#FFE78D" points="0 200 100 200 100 300 0 300"></polygon>
                <polygon id="Fill-11-copy" fill="#FFE78D" points="100 0 200 0 200 100 100 100"></polygon>
                <polygon id="Fill-11-copy" fill="#FFE78D" points="400 200 500 200 500 300 400 300"></polygon>
                <polygon id="Fill-11-copy-2" fill="#FFE78D" points="700 200 800 200 800 300 700 300"></polygon>
                <polygon id="Fill-11-copy-3" fill="#FFE78D" points="1000 200 1100 200 1100 300 1000 300"></polygon>
                <polygon id="Fill-12" fill="#FFE657" points="200 100 300 100 300 200 200 200"></polygon>
                <polygon id="Fill-12-copy" fill="#FFE657" points="800 100 900 100 900 200 800 200"></polygon>
                <polygon id="Fill-12-copy-2" fill="#FFE657" points="900 300 1000 300 1000 400 900 400"></polygon>
            </g>
            <g id="Squares-of-diversity" transform="translate(18.000000, 0.000000)">
                <polygon id="Fill-1" fill="#E99D9B" points="300 200 400 200 400 300 300 300"></polygon>
                <polygon id="Fill-1-copy" fill="#E99D9B" points="1000 100 1100 100 1100 200 1000 200"></polygon>
                <polygon id="Fill-1-copy" fill="#E99D9B" points="200 0 300 0 300 100 200 100"></polygon>
                <polygon id="Fill-1-copy-2" fill="#E99D9B" points="800 200 900 200 900 300 800 300"></polygon>
                <polygon id="Fill-1-copy" fill="#E99D9B" points="600 300 700 300 700 400 600 400"></polygon>
                <polygon id="Fill-1-copy-2" fill="#E99D9B" points="700 0 800 0 800 100 700 100"></polygon>
                <polygon id="Fill-2" fill="#E75646" points="400 300 500 300 500 400 400 400"></polygon>
                <polygon id="Fill-2-copy" fill="#E75646" points="500 0 600 0 600 100 500 100"></polygon>
                <polygon id="Fill-2-copy" fill="#E75646" points="600 100 700 100 700 200 600 200"></polygon>
                <polygon id="Fill-3" fill="#F0855A" points="200 200 300 200 300 300 200 300"></polygon>
                <polygon id="Fill-4" fill="#EC5F4C" points="300 300 400 300 400 400 300 400"></polygon>
                <polygon id="Fill-4-copy" fill="#EC5F4C" points="800 300 900 300 900 400 800 400"></polygon>
                <polygon id="Fill-4-copy" fill="#EC5F4C" points="700 100 800 100 800 200 700 200"></polygon>
                <polygon id="Fill-4-copy-2" fill="#EC5F4C" points="900 0 1000 0 1000 100 900 100"></polygon>
                <polygon id="Fill-4-copy" fill="#EC5F4C" points="100 300 200 300 200 400 100 400"></polygon>
                <polygon id="Fill-4-copy" fill="#EC5F4C" points="0 100 100 100 100 200 0 200"></polygon>
                <polygon id="Fill-5" fill="#8FCDC5" points="0 300 100 300 100 400 0 400"></polygon>
                <polygon id="Fill-5-copy" fill="#8FCDC5" points="500 200 600 200 600 300 500 300"></polygon>
                <polygon id="Fill-5-copy-2" fill="#8FCDC5" points="1000 300 1100 300 1100 400 1000 400"></polygon>
                <polygon id="Fill-6" fill="#F8D4E7" points="300 0 400 0 400 100 300 100"></polygon>
                <polygon id="Fill-6-copy" fill="#F8D4E7" points="500 100 600 100 600 200 500 200"></polygon>
                <polygon id="Fill-6-copy-2" fill="#F8D4E7" points="600 200 700 200 700 300 600 300"></polygon>
                <polygon id="Fill-6-copy-3" fill="#F8D4E7" points="1000 0 1100 0 1100 100 1000 100"></polygon>
                <polygon id="Fill-6-copy-3" fill="#F8D4E7" points="200 300 300 300 300 400 200 400"></polygon>
                <polygon id="Fill-6-copy" fill="#F8D4E7" points="100 100 200 100 200 200 100 200"></polygon>
                <polygon id="Fill-7" fill="#F0A8BD" points="300 100 400 100 400 200 300 200"></polygon>
                <polygon id="Fill-7-copy" fill="#F0A8BD" points="900 100 1000 100 1000 200 900 200"></polygon>
                <polygon id="Fill-8" fill="#F9BF7C" points="100 200 200 200 200 300 100 300"></polygon>
                <polygon id="Fill-8-copy" fill="#F9BF7C" points="900 200 1000 200 1000 300 900 300"></polygon>
                <polygon id="Fill-8-copy" fill="#F9BF7C" points="400 0 500 0 500 100 400 100"></polygon>
                <polygon id="Fill-8-copy-2" fill="#F9BF7C" points="700 300 800 300 800 400 700 400"></polygon>
                <polygon id="Fill-9" fill="#BA4364" style="mix-blend-mode: multiply;" points="500 300 600 300 600 400 500 400"></polygon>
                <polygon id="Fill-9-copy" fill="#BA4364" points="800 0 900 0 900 100 800 100"></polygon>
                <polygon id="Fill-10" fill="#9ED8F4" points="400 100 500 100 500 200 400 200"></polygon>
                <polygon id="Fill-10-copy" fill="#9ED8F4" points="0 0 100 0 100 100 0 100"></polygon>
                <polygon id="Fill-10-copy" fill="#9ED8F4" points="600 0 700 0 700 100 600 100"></polygon>
                <polygon id="Fill-11" fill="#FFE78D" points="0 200 100 200 100 300 0 300"></polygon>
                <polygon id="Fill-11-copy" fill="#FFE78D" points="100 0 200 0 200 100 100 100"></polygon>
                <polygon id="Fill-11-copy" fill="#FFE78D" points="400 200 500 200 500 300 400 300"></polygon>
                <polygon id="Fill-11-copy-2" fill="#FFE78D" points="700 200 800 200 800 300 700 300"></polygon>
                <polygon id="Fill-11-copy-3" fill="#FFE78D" points="1000 200 1100 200 1100 300 1000 300"></polygon>
                <polygon id="Fill-12" fill="#FFE657" points="200 100 300 100 300 200 200 200"></polygon>
                <polygon id="Fill-12-copy" fill="#FFE657" points="800 100 900 100 900 200 800 200"></polygon>
                <polygon id="Fill-12-copy-2" fill="#FFE657" points="900 300 1000 300 1000 400 900 400"></polygon>
            </g>
            <g id="Squares-of-diversity" transform="translate(18.000000, 400.000000)">
                <polygon id="Fill-1" fill="#E99D9B" points="300 200 400 200 400 300 300 300"></polygon>
                <polygon id="Fill-1-copy" fill="#E99D9B" points="1000 100 1100 100 1100 200 1000 200"></polygon>
                <polygon id="Fill-1-copy" fill="#E99D9B" points="200 0 300 0 300 100 200 100"></polygon>
                <polygon id="Fill-1-copy-2" fill="#E99D9B" points="800 200 900 200 900 300 800 300"></polygon>
                <polygon id="Fill-1-copy" fill="#E99D9B" points="600 300 700 300 700 400 600 400"></polygon>
                <polygon id="Fill-1-copy-2" fill="#E99D9B" points="700 0 800 0 800 100 700 100"></polygon>
                <polygon id="Fill-2" fill="#E75646" points="400 300 500 300 500 400 400 400"></polygon>
                <polygon id="Fill-2-copy" fill="#E75646" points="500 0 600 0 600 100 500 100"></polygon>
                <polygon id="Fill-2-copy" fill="#E75646" points="600 100 700 100 700 200 600 200"></polygon>
                <polygon id="Fill-3" fill="#F0855A" points="200 200 300 200 300 300 200 300"></polygon>
                <polygon id="Fill-4" fill="#EC5F4C" points="300 300 400 300 400 400 300 400"></polygon>
                <polygon id="Fill-4-copy" fill="#EC5F4C" points="800 300 900 300 900 400 800 400"></polygon>
                <polygon id="Fill-4-copy" fill="#EC5F4C" points="700 100 800 100 800 200 700 200"></polygon>
                <polygon id="Fill-4-copy-2" fill="#EC5F4C" points="900 0 1000 0 1000 100 900 100"></polygon>
                <polygon id="Fill-4-copy" fill="#EC5F4C" points="100 300 200 300 200 400 100 400"></polygon>
                <polygon id="Fill-4-copy" fill="#EC5F4C" points="0 100 100 100 100 200 0 200"></polygon>
                <polygon id="Fill-5" fill="#8FCDC5" points="0 300 100 300 100 400 0 400"></polygon>
                <polygon id="Fill-5-copy" fill="#8FCDC5" points="500 200 600 200 600 300 500 300"></polygon>
                <polygon id="Fill-5-copy-2" fill="#8FCDC5" points="1000 300 1100 300 1100 400 1000 400"></polygon>
                <polygon id="Fill-6" fill="#F8D4E7" points="300 0 400 0 400 100 300 100"></polygon>
                <polygon id="Fill-6-copy" fill="#F8D4E7" points="500 100 600 100 600 200 500 200"></polygon>
                <polygon id="Fill-6-copy-2" fill="#F8D4E7" points="600 200 700 200 700 300 600 300"></polygon>
                <polygon id="Fill-6-copy-3" fill="#F8D4E7" points="1000 0 1100 0 1100 100 1000 100"></polygon>
                <polygon id="Fill-6-copy-3" fill="#F8D4E7" points="200 300 300 300 300 400 200 400"></polygon>
                <polygon id="Fill-6-copy" fill="#F8D4E7" points="100 100 200 100 200 200 100 200"></polygon>
                <polygon id="Fill-7" fill="#F0A8BD" points="300 100 400 100 400 200 300 200"></polygon>
                <polygon id="Fill-7-copy" fill="#F0A8BD" points="900 100 1000 100 1000 200 900 200"></polygon>
                <polygon id="Fill-8" fill="#F9BF7C" points="100 200 200 200 200 300 100 300"></polygon>
                <polygon id="Fill-8-copy" fill="#F9BF7C" points="900 200 1000 200 1000 300 900 300"></polygon>
                <polygon id="Fill-8-copy" fill="#F9BF7C" points="400 0 500 0 500 100 400 100"></polygon>
                <polygon id="Fill-8-copy-2" fill="#F9BF7C" points="700 300 800 300 800 400 700 400"></polygon>
                <polygon id="Fill-9" fill="#BA4364" points="500 300 600 300 600 400 500 400"></polygon>
                <polygon id="Fill-9-copy" fill="#BA4364" points="800 0 900 0 900 100 800 100"></polygon>
                <polygon id="Fill-10" fill="#9ED8F4" points="400 100 500 100 500 200 400 200"></polygon>
                <polygon id="Fill-10-copy" fill="#9ED8F4" points="0 0 100 0 100 100 0 100"></polygon>
                <polygon id="Fill-10-copy" fill="#9ED8F4" points="600 0 700 0 700 100 600 100"></polygon>
                <polygon id="Fill-11" fill="#FFE78D" points="0 200 100 200 100 300 0 300"></polygon>
                <polygon id="Fill-11-copy" fill="#FFE78D" points="100 0 200 0 200 100 100 100"></polygon>
                <polygon id="Fill-11-copy" fill="#FFE78D" points="400 200 500 200 500 300 400 300"></polygon>
                <polygon id="Fill-11-copy-2" fill="#FFE78D" points="700 200 800 200 800 300 700 300"></polygon>
                <polygon id="Fill-11-copy-3" fill="#FFE78D" points="1000 200 1100 200 1100 300 1000 300"></polygon>
                <polygon id="Fill-12" fill="#FFE657" points="200 100 300 100 300 200 200 200"></polygon>
                <polygon id="Fill-12-copy" fill="#FFE657" points="800 100 900 100 900 200 800 200"></polygon>
                <polygon id="Fill-12-copy-2" fill="#FFE657" points="900 300 1000 300 1000 400 900 400"></polygon>
            </g>
            <g id="Dots-of-connection" transform="translate(0.000000, 1632.000000)" fill="#FFFFFF">
                <path d="M18,36 C27.941126,36 36,27.941126 36,18 C36,8.05887401 27.941126,0 18,0 C8.05887401,0 0,8.05887401 0,18 C0,27.941126 8.05887401,36 18,36 Z" id="Oval-1-copy-16"></path>
                <path d="M18,136 C27.941126,136 36,127.941126 36,118 C36,108.058874 27.941126,100 18,100 C8.05887401,100 0,108.058874 0,118 C0,127.941126 8.05887401,136 18,136 Z" id="Oval-1-copy-17"></path>
                <path d="M18,236 C27.941126,236 36,227.941126 36,218 C36,208.058874 27.941126,200 18,200 C8.05887401,200 0,208.058874 0,218 C0,227.941126 8.05887401,236 18,236 Z" id="Oval-1-copy-18"></path>
                <path d="M18,336 C27.941126,336 36,327.941126 36,318 C36,308.058874 27.941126,300 18,300 C8.05887401,300 0,308.058874 0,318 C0,327.941126 8.05887401,336 18,336 Z" id="Oval-1-copy-19"></path>
                <path d="M318,136 C327.941126,136 336,127.941126 336,118 C336,108.058874 327.941126,100 318,100 C308.058874,100 300,108.058874 300,118 C300,127.941126 308.058874,136 318,136 Z" id="Oval-1-copy-18"></path>
                <path d="M318,236 C327.941126,236 336,227.941126 336,218 C336,208.058874 327.941126,200 318,200 C308.058874,200 300,208.058874 300,218 C300,227.941126 308.058874,236 318,236 Z" id="Oval-1-copy-19"></path>
                <path d="M318,336 C327.941126,336 336,327.941126 336,318 C336,308.058874 327.941126,300 318,300 C308.058874,300 300,308.058874 300,318 C300,327.941126 308.058874,336 318,336 Z" id="Oval-1-copy-20"></path>
                <path d="M218,136 C227.941126,136 236,127.941126 236,118 C236,108.058874 227.941126,100 218,100 C208.058874,100 200,108.058874 200,118 C200,127.941126 208.058874,136 218,136 Z" id="Oval-1-copy-18"></path>
                <path d="M218,236 C227.941126,236 236,227.941126 236,218 C236,208.058874 227.941126,200 218,200 C208.058874,200 200,208.058874 200,218 C200,227.941126 208.058874,236 218,236 Z" id="Oval-1-copy-19"></path>
                <path d="M218,336 C227.941126,336 236,327.941126 236,318 C236,308.058874 227.941126,300 218,300 C208.058874,300 200,308.058874 200,318 C200,327.941126 208.058874,336 218,336 Z" id="Oval-1-copy-20"></path>
                <path d="M118,36 C127.941126,36 136,27.941126 136,18 C136,8.05887401 127.941126,0 118,0 C108.058874,0 100,8.05887401 100,18 C100,27.941126 108.058874,36 118,36 Z" id="Oval-1-copy-17"></path>
                <path d="M118,136 C127.941126,136 136,127.941126 136,118 C136,108.058874 127.941126,100 118,100 C108.058874,100 100,108.058874 100,118 C100,127.941126 108.058874,136 118,136 Z" id="Oval-1-copy-18"></path>
                <path d="M118,236 C127.941126,236 136,227.941126 136,218 C136,208.058874 127.941126,200 118,200 C108.058874,200 100,208.058874 100,218 C100,227.941126 108.058874,236 118,236 Z" id="Oval-1-copy-19"></path>
                <path d="M118,336 C127.941126,336 136,327.941126 136,318 C136,308.058874 127.941126,300 118,300 C108.058874,300 100,308.058874 100,318 C100,327.941126 108.058874,336 118,336 Z" id="Oval-1-copy-20"></path>
                <path d="M418,136 C427.941126,136 436,127.941126 436,118 C436,108.058874 427.941126,100 418,100 C408.058874,100 400,108.058874 400,118 C400,127.941126 408.058874,136 418,136 Z" id="Oval-1-copy-18"></path>
                <path d="M418,236 C427.941126,236 436,227.941126 436,218 C436,208.058874 427.941126,200 418,200 C408.058874,200 400,208.058874 400,218 C400,227.941126 408.058874,236 418,236 Z" id="Oval-1-copy-19"></path>
                <path d="M418,336 C427.941126,336 436,327.941126 436,318 C436,308.058874 427.941126,300 418,300 C408.058874,300 400,308.058874 400,318 C400,327.941126 408.058874,336 418,336 Z" id="Oval-1-copy-20"></path>
                <path d="M518,136 C527.941126,136 536,127.941126 536,118 C536,108.058874 527.941126,100 518,100 C508.058874,100 500,108.058874 500,118 C500,127.941126 508.058874,136 518,136 Z" id="Oval-1-copy-18"></path>
                <path d="M518,236 C527.941126,236 536,227.941126 536,218 C536,208.058874 527.941126,200 518,200 C508.058874,200 500,208.058874 500,218 C500,227.941126 508.058874,236 518,236 Z" id="Oval-1-copy-19"></path>
                <path d="M518,336 C527.941126,336 536,327.941126 536,318 C536,308.058874 527.941126,300 518,300 C508.058874,300 500,308.058874 500,318 C500,327.941126 508.058874,336 518,336 Z" id="Oval-1-copy-20"></path>
                <path d="M618,136 C627.941126,136 636,127.941126 636,118 C636,108.058874 627.941126,100 618,100 C608.058874,100 600,108.058874 600,118 C600,127.941126 608.058874,136 618,136 Z" id="Oval-1-copy-18"></path>
                <path d="M618,236 C627.941126,236 636,227.941126 636,218 C636,208.058874 627.941126,200 618,200 C608.058874,200 600,208.058874 600,218 C600,227.941126 608.058874,236 618,236 Z" id="Oval-1-copy-19"></path>
                <path d="M618,336 C627.941126,336 636,327.941126 636,318 C636,308.058874 627.941126,300 618,300 C608.058874,300 600,308.058874 600,318 C600,327.941126 608.058874,336 618,336 Z" id="Oval-1-copy-20"></path>
                <path d="M718,136 C727.941126,136 736,127.941126 736,118 C736,108.058874 727.941126,100 718,100 C708.058874,100 700,108.058874 700,118 C700,127.941126 708.058874,136 718,136 Z" id="Oval-1-copy-18"></path>
                <path d="M718,236 C727.941126,236 736,227.941126 736,218 C736,208.058874 727.941126,200 718,200 C708.058874,200 700,208.058874 700,218 C700,227.941126 708.058874,236 718,236 Z" id="Oval-1-copy-19"></path>
                <path d="M718,336 C727.941126,336 736,327.941126 736,318 C736,308.058874 727.941126,300 718,300 C708.058874,300 700,308.058874 700,318 C700,327.941126 708.058874,336 718,336 Z" id="Oval-1-copy-20"></path>
                <path d="M818,136 C827.941126,136 836,127.941126 836,118 C836,108.058874 827.941126,100 818,100 C808.058874,100 800,108.058874 800,118 C800,127.941126 808.058874,136 818,136 Z" id="Oval-1-copy-18"></path>
                <path d="M818,236 C827.941126,236 836,227.941126 836,218 C836,208.058874 827.941126,200 818,200 C808.058874,200 800,208.058874 800,218 C800,227.941126 808.058874,236 818,236 Z" id="Oval-1-copy-19"></path>
                <path d="M818,336 C827.941126,336 836,327.941126 836,318 C836,308.058874 827.941126,300 818,300 C808.058874,300 800,308.058874 800,318 C800,327.941126 808.058874,336 818,336 Z" id="Oval-1-copy-20"></path>
                <path d="M918,136 C927.941126,136 936,127.941126 936,118 C936,108.058874 927.941126,100 918,100 C908.058874,100 900,108.058874 900,118 C900,127.941126 908.058874,136 918,136 Z" id="Oval-1-copy-18"></path>
                <path d="M918,236 C927.941126,236 936,227.941126 936,218 C936,208.058874 927.941126,200 918,200 C908.058874,200 900,208.058874 900,218 C900,227.941126 908.058874,236 918,236 Z" id="Oval-1-copy-19"></path>
                <path d="M918,336 C927.941126,336 936,327.941126 936,318 C936,308.058874 927.941126,300 918,300 C908.058874,300 900,308.058874 900,318 C900,327.941126 908.058874,336 918,336 Z" id="Oval-1-copy-20"></path>
                <path d="M1018,36 C1027.94113,36 1036,27.941126 1036,18 C1036,8.05887401 1027.94113,0 1018,0 C1008.05887,0 1000,8.05887401 1000,18 C1000,27.941126 1008.05887,36 1018,36 Z" id="Oval-1-copy-17"></path>
                <path d="M1018,136 C1027.94113,136 1036,127.941126 1036,118 C1036,108.058874 1027.94113,100 1018,100 C1008.05887,100 1000,108.058874 1000,118 C1000,127.941126 1008.05887,136 1018,136 Z" id="Oval-1-copy-18"></path>
                <path d="M1018,236 C1027.94113,236 1036,227.941126 1036,218 C1036,208.058874 1027.94113,200 1018,200 C1008.05887,200 1000,208.058874 1000,218 C1000,227.941126 1008.05887,236 1018,236 Z" id="Oval-1-copy-19"></path>
                <path d="M1018,336 C1027.94113,336 1036,327.941126 1036,318 C1036,308.058874 1027.94113,300 1018,300 C1008.05887,300 1000,308.058874 1000,318 C1000,327.941126 1008.05887,336 1018,336 Z" id="Oval-1-copy-20"></path>
                <g id="Group-copy-10" transform="translate(1100.000000, 0.000000)">
                    <path d="M18,36 C27.941126,36 36,27.941126 36,18 C36,8.05887401 27.941126,0 18,0 C8.05887401,0 0,8.05887401 0,18 C0,27.941126 8.05887401,36 18,36 Z" id="Oval-1-copy-17"></path>
                    <path d="M18,136 C27.941126,136 36,127.941126 36,118 C36,108.058874 27.941126,100 18,100 C8.05887401,100 0,108.058874 0,118 C0,127.941126 8.05887401,136 18,136 Z" id="Oval-1-copy-18"></path>
                    <path d="M18,236 C27.941126,236 36,227.941126 36,218 C36,208.058874 27.941126,200 18,200 C8.05887401,200 0,208.058874 0,218 C0,227.941126 8.05887401,236 18,236 Z" id="Oval-1-copy-19"></path>
                    <path d="M18,336 C27.941126,336 36,327.941126 36,318 C36,308.058874 27.941126,300 18,300 C8.05887401,300 0,308.058874 0,318 C0,327.941126 8.05887401,336 18,336 Z" id="Oval-1-copy-20"></path>
                </g>
            </g>
            <g id="Dots-of-connection" transform="translate(0.000000, 2032.000000)" fill="#FFFFFF">
                <path d="M18,36 C27.941126,36 36,27.941126 36,18 C36,8.05887401 27.941126,0 18,0 C8.05887401,0 0,8.05887401 0,18 C0,27.941126 8.05887401,36 18,36 Z" id="Oval-1-copy-16"></path>
                <path d="M18,136 C27.941126,136 36,127.941126 36,118 C36,108.058874 27.941126,100 18,100 C8.05887401,100 0,108.058874 0,118 C0,127.941126 8.05887401,136 18,136 Z" id="Oval-1-copy-17"></path>
                <path d="M18,236 C27.941126,236 36,227.941126 36,218 C36,208.058874 27.941126,200 18,200 C8.05887401,200 0,208.058874 0,218 C0,227.941126 8.05887401,236 18,236 Z" id="Oval-1-copy-18"></path>
                <path d="M18,336 C27.941126,336 36,327.941126 36,318 C36,308.058874 27.941126,300 18,300 C8.05887401,300 0,308.058874 0,318 C0,327.941126 8.05887401,336 18,336 Z" id="Oval-1-copy-19"></path>
                <path d="M318,36 C327.941126,36 336,27.941126 336,18 C336,8.05887401 327.941126,0 318,0 C308.058874,0 300,8.05887401 300,18 C300,27.941126 308.058874,36 318,36 Z" id="Oval-1-copy-18"></path>
                <path d="M318,236 C327.941126,236 336,227.941126 336,218 C336,208.058874 327.941126,200 318,200 C308.058874,200 300,208.058874 300,218 C300,227.941126 308.058874,236 318,236 Z" id="Oval-1-copy-19"></path>
                <path d="M318,336 C327.941126,336 336,327.941126 336,318 C336,308.058874 327.941126,300 318,300 C308.058874,300 300,308.058874 300,318 C300,327.941126 308.058874,336 318,336 Z" id="Oval-1-copy-20"></path>
                <path d="M218,36 C227.941126,36 236,27.941126 236,18 C236,8.05887401 227.941126,0 218,0 C208.058874,0 200,8.05887401 200,18 C200,27.941126 208.058874,36 218,36 Z" id="Oval-1-copy-18"></path>
                <path d="M218,236 C227.941126,236 236,227.941126 236,218 C236,208.058874 227.941126,200 218,200 C208.058874,200 200,208.058874 200,218 C200,227.941126 208.058874,236 218,236 Z" id="Oval-1-copy-19"></path>
                <path d="M218,336 C227.941126,336 236,327.941126 236,318 C236,308.058874 227.941126,300 218,300 C208.058874,300 200,308.058874 200,318 C200,327.941126 208.058874,336 218,336 Z" id="Oval-1-copy-20"></path>
                <path d="M118,36 C127.941126,36 136,27.941126 136,18 C136,8.05887401 127.941126,0 118,0 C108.058874,0 100,8.05887401 100,18 C100,27.941126 108.058874,36 118,36 Z" id="Oval-1-copy-17"></path>
                <path d="M118,136 C127.941126,136 136,127.941126 136,118 C136,108.058874 127.941126,100 118,100 C108.058874,100 100,108.058874 100,118 C100,127.941126 108.058874,136 118,136 Z" id="Oval-1-copy-18"></path>
                <path d="M118,236 C127.941126,236 136,227.941126 136,218 C136,208.058874 127.941126,200 118,200 C108.058874,200 100,208.058874 100,218 C100,227.941126 108.058874,236 118,236 Z" id="Oval-1-copy-19"></path>
                <path d="M118,336 C127.941126,336 136,327.941126 136,318 C136,308.058874 127.941126,300 118,300 C108.058874,300 100,308.058874 100,318 C100,327.941126 108.058874,336 118,336 Z" id="Oval-1-copy-20"></path>
                <path d="M418,36 C427.941126,36 436,27.941126 436,18 C436,8.05887401 427.941126,0 418,0 C408.058874,0 400,8.05887401 400,18 C400,27.941126 408.058874,36 418,36 Z" id="Oval-1-copy-18"></path>
                <path d="M418,236 C427.941126,236 436,227.941126 436,218 C436,208.058874 427.941126,200 418,200 C408.058874,200 400,208.058874 400,218 C400,227.941126 408.058874,236 418,236 Z" id="Oval-1-copy-19"></path>
                <path d="M418,336 C427.941126,336 436,327.941126 436,318 C436,308.058874 427.941126,300 418,300 C408.058874,300 400,308.058874 400,318 C400,327.941126 408.058874,336 418,336 Z" id="Oval-1-copy-20"></path>
                <path d="M518,36 C527.941126,36 536,27.941126 536,18 C536,8.05887401 527.941126,0 518,0 C508.058874,0 500,8.05887401 500,18 C500,27.941126 508.058874,36 518,36 Z" id="Oval-1-copy-18"></path>
                <path d="M518,236 C527.941126,236 536,227.941126 536,218 C536,208.058874 527.941126,200 518,200 C508.058874,200 500,208.058874 500,218 C500,227.941126 508.058874,236 518,236 Z" id="Oval-1-copy-19"></path>
                <path d="M518,336 C527.941126,336 536,327.941126 536,318 C536,308.058874 527.941126,300 518,300 C508.058874,300 500,308.058874 500,318 C500,327.941126 508.058874,336 518,336 Z" id="Oval-1-copy-20"></path>
                <path d="M618,36 C627.941126,36 636,27.941126 636,18 C636,8.05887401 627.941126,0 618,0 C608.058874,0 600,8.05887401 600,18 C600,27.941126 608.058874,36 618,36 Z" id="Oval-1-copy-18"></path>
                <path d="M618,236 C627.941126,236 636,227.941126 636,218 C636,208.058874 627.941126,200 618,200 C608.058874,200 600,208.058874 600,218 C600,227.941126 608.058874,236 618,236 Z" id="Oval-1-copy-19"></path>
                <path d="M618,336 C627.941126,336 636,327.941126 636,318 C636,308.058874 627.941126,300 618,300 C608.058874,300 600,308.058874 600,318 C600,327.941126 608.058874,336 618,336 Z" id="Oval-1-copy-20"></path>
                <path d="M718,36 C727.941126,36 736,27.941126 736,18 C736,8.05887401 727.941126,0 718,0 C708.058874,0 700,8.05887401 700,18 C700,27.941126 708.058874,36 718,36 Z" id="Oval-1-copy-18"></path>
                <path d="M718,236 C727.941126,236 736,227.941126 736,218 C736,208.058874 727.941126,200 718,200 C708.058874,200 700,208.058874 700,218 C700,227.941126 708.058874,236 718,236 Z" id="Oval-1-copy-19"></path>
                <path d="M718,336 C727.941126,336 736,327.941126 736,318 C736,308.058874 727.941126,300 718,300 C708.058874,300 700,308.058874 700,318 C700,327.941126 708.058874,336 718,336 Z" id="Oval-1-copy-20"></path>
                <path d="M818,36 C827.941126,36 836,27.941126 836,18 C836,8.05887401 827.941126,0 818,0 C808.058874,0 800,8.05887401 800,18 C800,27.941126 808.058874,36 818,36 Z" id="Oval-1-copy-18"></path>
                <path d="M818,236 C827.941126,236 836,227.941126 836,218 C836,208.058874 827.941126,200 818,200 C808.058874,200 800,208.058874 800,218 C800,227.941126 808.058874,236 818,236 Z" id="Oval-1-copy-19"></path>
                <path d="M818,336 C827.941126,336 836,327.941126 836,318 C836,308.058874 827.941126,300 818,300 C808.058874,300 800,308.058874 800,318 C800,327.941126 808.058874,336 818,336 Z" id="Oval-1-copy-20"></path>
                <path d="M918,36 C927.941126,36 936,27.941126 936,18 C936,8.05887401 927.941126,0 918,0 C908.058874,0 900,8.05887401 900,18 C900,27.941126 908.058874,36 918,36 Z" id="Oval-1-copy-18"></path>
                <path d="M318,136 C327.941126,136 336,127.941126 336,118 C336,108.058874 327.941126,100 318,100 C308.058874,100 300,108.058874 300,118 C300,127.941126 308.058874,136 318,136 Z" id="Oval-1-copy-18"></path>
                <path d="M218,136 C227.941126,136 236,127.941126 236,118 C236,108.058874 227.941126,100 218,100 C208.058874,100 200,108.058874 200,118 C200,127.941126 208.058874,136 218,136 Z" id="Oval-1-copy-18"></path>
                <path d="M418,136 C427.941126,136 436,127.941126 436,118 C436,108.058874 427.941126,100 418,100 C408.058874,100 400,108.058874 400,118 C400,127.941126 408.058874,136 418,136 Z" id="Oval-1-copy-18"></path>
                <path d="M518,136 C527.941126,136 536,127.941126 536,118 C536,108.058874 527.941126,100 518,100 C508.058874,100 500,108.058874 500,118 C500,127.941126 508.058874,136 518,136 Z" id="Oval-1-copy-18"></path>
                <path d="M618,136 C627.941126,136 636,127.941126 636,118 C636,108.058874 627.941126,100 618,100 C608.058874,100 600,108.058874 600,118 C600,127.941126 608.058874,136 618,136 Z" id="Oval-1-copy-18"></path>
                <path d="M718,136 C727.941126,136 736,127.941126 736,118 C736,108.058874 727.941126,100 718,100 C708.058874,100 700,108.058874 700,118 C700,127.941126 708.058874,136 718,136 Z" id="Oval-1-copy-18"></path>
                <path d="M818,136 C827.941126,136 836,127.941126 836,118 C836,108.058874 827.941126,100 818,100 C808.058874,100 800,108.058874 800,118 C800,127.941126 808.058874,136 818,136 Z" id="Oval-1-copy-18"></path>
                <path d="M918,136 C927.941126,136 936,127.941126 936,118 C936,108.058874 927.941126,100 918,100 C908.058874,100 900,108.058874 900,118 C900,127.941126 908.058874,136 918,136 Z" id="Oval-1-copy-18"></path>
                <path d="M918,236 C927.941126,236 936,227.941126 936,218 C936,208.058874 927.941126,200 918,200 C908.058874,200 900,208.058874 900,218 C900,227.941126 908.058874,236 918,236 Z" id="Oval-1-copy-19"></path>
                <path d="M918,336 C927.941126,336 936,327.941126 936,318 C936,308.058874 927.941126,300 918,300 C908.058874,300 900,308.058874 900,318 C900,327.941126 908.058874,336 918,336 Z" id="Oval-1-copy-20"></path>
                <path d="M1018,36 C1027.94113,36 1036,27.941126 1036,18 C1036,8.05887401 1027.94113,0 1018,0 C1008.05887,0 1000,8.05887401 1000,18 C1000,27.941126 1008.05887,36 1018,36 Z" id="Oval-1-copy-17"></path>
                <path d="M1018,136 C1027.94113,136 1036,127.941126 1036,118 C1036,108.058874 1027.94113,100 1018,100 C1008.05887,100 1000,108.058874 1000,118 C1000,127.941126 1008.05887,136 1018,136 Z" id="Oval-1-copy-18"></path>
                <path d="M1018,236 C1027.94113,236 1036,227.941126 1036,218 C1036,208.058874 1027.94113,200 1018,200 C1008.05887,200 1000,208.058874 1000,218 C1000,227.941126 1008.05887,236 1018,236 Z" id="Oval-1-copy-19"></path>
                <path d="M1018,336 C1027.94113,336 1036,327.941126 1036,318 C1036,308.058874 1027.94113,300 1018,300 C1008.05887,300 1000,308.058874 1000,318 C1000,327.941126 1008.05887,336 1018,336 Z" id="Oval-1-copy-20"></path>
                <g id="Group-copy-10" transform="translate(1100.000000, 0.000000)">
                    <path d="M18,36 C27.941126,36 36,27.941126 36,18 C36,8.05887401 27.941126,0 18,0 C8.05887401,0 0,8.05887401 0,18 C0,27.941126 8.05887401,36 18,36 Z" id="Oval-1-copy-17"></path>
                    <path d="M18,136 C27.941126,136 36,127.941126 36,118 C36,108.058874 27.941126,100 18,100 C8.05887401,100 0,108.058874 0,118 C0,127.941126 8.05887401,136 18,136 Z" id="Oval-1-copy-18"></path>
                    <path d="M18,236 C27.941126,236 36,227.941126 36,218 C36,208.058874 27.941126,200 18,200 C8.05887401,200 0,208.058874 0,218 C0,227.941126 8.05887401,236 18,236 Z" id="Oval-1-copy-19"></path>
                    <path d="M18,336 C27.941126,336 36,327.941126 36,318 C36,308.058874 27.941126,300 18,300 C8.05887401,300 0,308.058874 0,318 C0,327.941126 8.05887401,336 18,336 Z" id="Oval-1-copy-20"></path>
                </g>
            </g>
            <g id="Dots-of-connection" transform="translate(0.000000, 132.000000)" fill="#FFFFFF">
                <g id="Group">
                    <path d="M18,36 C27.941126,36 36,27.941126 36,18 C36,8.05887401 27.941126,0 18,0 C8.05887401,0 0,8.05887401 0,18 C0,27.941126 8.05887401,36 18,36 Z" id="Oval-1-copy-16"></path>
                    <path d="M18,136 C27.941126,136 36,127.941126 36,118 C36,108.058874 27.941126,100 18,100 C8.05887401,100 0,108.058874 0,118 C0,127.941126 8.05887401,136 18,136 Z" id="Oval-1-copy-17"></path>
                    <path d="M18,236 C27.941126,236 36,227.941126 36,218 C36,208.058874 27.941126,200 18,200 C8.05887401,200 0,208.058874 0,218 C0,227.941126 8.05887401,236 18,236 Z" id="Oval-1-copy-18"></path>
                    <path d="M18,336 C27.941126,336 36,327.941126 36,318 C36,308.058874 27.941126,300 18,300 C8.05887401,300 0,308.058874 0,318 C0,327.941126 8.05887401,336 18,336 Z" id="Oval-1-copy-19"></path>
                </g>
                <g id="Group-copy-2" transform="translate(300.000000, 0.000000)">
                    <path d="M18,36 C27.941126,36 36,27.941126 36,18 C36,8.05887401 27.941126,0 18,0 C8.05887401,0 0,8.05887401 0,18 C0,27.941126 8.05887401,36 18,36 Z" id="Oval-1-copy-17"></path>
                    <path d="M18,136 C27.941126,136 36,127.941126 36,118 C36,108.058874 27.941126,100 18,100 C8.05887401,100 0,108.058874 0,118 C0,127.941126 8.05887401,136 18,136 Z" id="Oval-1-copy-18"></path>
                    <path d="M18,236 C27.941126,236 36,227.941126 36,218 C36,208.058874 27.941126,200 18,200 C8.05887401,200 0,208.058874 0,218 C0,227.941126 8.05887401,236 18,236 Z" id="Oval-1-copy-19"></path>
                    <path d="M18,336 C27.941126,336 36,327.941126 36,318 C36,308.058874 27.941126,300 18,300 C8.05887401,300 0,308.058874 0,318 C0,327.941126 8.05887401,336 18,336 Z" id="Oval-1-copy-20"></path>
                </g>
                <g id="Group-copy-3" transform="translate(200.000000, 0.000000)">
                    <path d="M18,36 C27.941126,36 36,27.941126 36,18 C36,8.05887401 27.941126,0 18,0 C8.05887401,0 0,8.05887401 0,18 C0,27.941126 8.05887401,36 18,36 Z" id="Oval-1-copy-17"></path>
                    <path d="M18,136 C27.941126,136 36,127.941126 36,118 C36,108.058874 27.941126,100 18,100 C8.05887401,100 0,108.058874 0,118 C0,127.941126 8.05887401,136 18,136 Z" id="Oval-1-copy-18"></path>
                    <path d="M18,236 C27.941126,236 36,227.941126 36,218 C36,208.058874 27.941126,200 18,200 C8.05887401,200 0,208.058874 0,218 C0,227.941126 8.05887401,236 18,236 Z" id="Oval-1-copy-19"></path>
                    <path d="M18,336 C27.941126,336 36,327.941126 36,318 C36,308.058874 27.941126,300 18,300 C8.05887401,300 0,308.058874 0,318 C0,327.941126 8.05887401,336 18,336 Z" id="Oval-1-copy-20"></path>
                </g>
                <g id="Group-copy-4" transform="translate(100.000000, 0.000000)">
                    <path d="M18,36 C27.941126,36 36,27.941126 36,18 C36,8.05887401 27.941126,0 18,0 C8.05887401,0 0,8.05887401 0,18 C0,27.941126 8.05887401,36 18,36 Z" id="Oval-1-copy-17"></path>
                    <path d="M18,136 C27.941126,136 36,127.941126 36,118 C36,108.058874 27.941126,100 18,100 C8.05887401,100 0,108.058874 0,118 C0,127.941126 8.05887401,136 18,136 Z" id="Oval-1-copy-18"></path>
                    <path d="M18,236 C27.941126,236 36,227.941126 36,218 C36,208.058874 27.941126,200 18,200 C8.05887401,200 0,208.058874 0,218 C0,227.941126 8.05887401,236 18,236 Z" id="Oval-1-copy-19"></path>
                    <path d="M18,336 C27.941126,336 36,327.941126 36,318 C36,308.058874 27.941126,300 18,300 C8.05887401,300 0,308.058874 0,318 C0,327.941126 8.05887401,336 18,336 Z" id="Oval-1-copy-20"></path>
                </g>
                <g id="Group-copy-3" transform="translate(400.000000, 0.000000)">
                    <path d="M18,36 C27.941126,36 36,27.941126 36,18 C36,8.05887401 27.941126,0 18,0 C8.05887401,0 0,8.05887401 0,18 C0,27.941126 8.05887401,36 18,36 Z" id="Oval-1-copy-17"></path>
                    <path d="M18,136 C27.941126,136 36,127.941126 36,118 C36,108.058874 27.941126,100 18,100 C8.05887401,100 0,108.058874 0,118 C0,127.941126 8.05887401,136 18,136 Z" id="Oval-1-copy-18" opacity="0.8"></path>
                    <path d="M18,236 C27.941126,236 36,227.941126 36,218 C36,208.058874 27.941126,200 18,200 C8.05887401,200 0,208.058874 0,218 C0,227.941126 8.05887401,236 18,236 Z" id="Oval-1-copy-19"></path>
                    <path d="M18,336 C27.941126,336 36,327.941126 36,318 C36,308.058874 27.941126,300 18,300 C8.05887401,300 0,308.058874 0,318 C0,327.941126 8.05887401,336 18,336 Z" id="Oval-1-copy-20"></path>
                </g>
                <g id="Group-copy-4" transform="translate(500.000000, 0.000000)">
                    <path d="M18,36 C27.941126,36 36,27.941126 36,18 C36,8.05887401 27.941126,0 18,0 C8.05887401,0 0,8.05887401 0,18 C0,27.941126 8.05887401,36 18,36 Z" id="Oval-1-copy-17"></path>
                    <path d="M18,136 C27.941126,136 36,127.941126 36,118 C36,108.058874 27.941126,100 18,100 C8.05887401,100 0,108.058874 0,118 C0,127.941126 8.05887401,136 18,136 Z" id="Oval-1-copy-18"></path>
                    <path d="M18,236 C27.941126,236 36,227.941126 36,218 C36,208.058874 27.941126,200 18,200 C8.05887401,200 0,208.058874 0,218 C0,227.941126 8.05887401,236 18,236 Z" id="Oval-1-copy-19"></path>
                    <path d="M18,336 C27.941126,336 36,327.941126 36,318 C36,308.058874 27.941126,300 18,300 C8.05887401,300 0,308.058874 0,318 C0,327.941126 8.05887401,336 18,336 Z" id="Oval-1-copy-20"></path>
                </g>
                <g id="Group-copy-5" transform="translate(600.000000, 0.000000)">
                    <path d="M18,36 C27.941126,36 36,27.941126 36,18 C36,8.05887401 27.941126,0 18,0 C8.05887401,0 0,8.05887401 0,18 C0,27.941126 8.05887401,36 18,36 Z" id="Oval-1-copy-17"></path>
                    <path d="M18,136 C27.941126,136 36,127.941126 36,118 C36,108.058874 27.941126,100 18,100 C8.05887401,100 0,108.058874 0,118 C0,127.941126 8.05887401,136 18,136 Z" id="Oval-1-copy-18"></path>
                    <path d="M18,236 C27.941126,236 36,227.941126 36,218 C36,208.058874 27.941126,200 18,200 C8.05887401,200 0,208.058874 0,218 C0,227.941126 8.05887401,236 18,236 Z" id="Oval-1-copy-19"></path>
                    <path d="M18,336 C27.941126,336 36,327.941126 36,318 C36,308.058874 27.941126,300 18,300 C8.05887401,300 0,308.058874 0,318 C0,327.941126 8.05887401,336 18,336 Z" id="Oval-1-copy-20"></path>
                </g>
                <g id="Group-copy-6" transform="translate(700.000000, 0.000000)">
                    <path d="M18,36 C27.941126,36 36,27.941126 36,18 C36,8.05887401 27.941126,0 18,0 C8.05887401,0 0,8.05887401 0,18 C0,27.941126 8.05887401,36 18,36 Z" id="Oval-1-copy-17"></path>
                    <path d="M18,136 C27.941126,136 36,127.941126 36,118 C36,108.058874 27.941126,100 18,100 C8.05887401,100 0,108.058874 0,118 C0,127.941126 8.05887401,136 18,136 Z" id="Oval-1-copy-18"></path>
                    <path d="M18,236 C27.941126,236 36,227.941126 36,218 C36,208.058874 27.941126,200 18,200 C8.05887401,200 0,208.058874 0,218 C0,227.941126 8.05887401,236 18,236 Z" id="Oval-1-copy-19"></path>
                    <path d="M18,336 C27.941126,336 36,327.941126 36,318 C36,308.058874 27.941126,300 18,300 C8.05887401,300 0,308.058874 0,318 C0,327.941126 8.05887401,336 18,336 Z" id="Oval-1-copy-20"></path>
                </g>
                <g id="Group-copy-7" transform="translate(800.000000, 0.000000)">
                    <path d="M18,36 C27.941126,36 36,27.941126 36,18 C36,8.05887401 27.941126,0 18,0 C8.05887401,0 0,8.05887401 0,18 C0,27.941126 8.05887401,36 18,36 Z" id="Oval-1-copy-17"></path>
                    <path d="M18,136 C27.941126,136 36,127.941126 36,118 C36,108.058874 27.941126,100 18,100 C8.05887401,100 0,108.058874 0,118 C0,127.941126 8.05887401,136 18,136 Z" id="Oval-1-copy-18"></path>
                    <path d="M18,236 C27.941126,236 36,227.941126 36,218 C36,208.058874 27.941126,200 18,200 C8.05887401,200 0,208.058874 0,218 C0,227.941126 8.05887401,236 18,236 Z" id="Oval-1-copy-19"></path>
                    <path d="M18,336 C27.941126,336 36,327.941126 36,318 C36,308.058874 27.941126,300 18,300 C8.05887401,300 0,308.058874 0,318 C0,327.941126 8.05887401,336 18,336 Z" id="Oval-1-copy-20"></path>
                </g>
                <g id="Group-copy-8" transform="translate(900.000000, 0.000000)">
                    <path d="M18,36 C27.941126,36 36,27.941126 36,18 C36,8.05887401 27.941126,0 18,0 C8.05887401,0 0,8.05887401 0,18 C0,27.941126 8.05887401,36 18,36 Z" id="Oval-1-copy-17"></path>
                    <path d="M18,136 C27.941126,136 36,127.941126 36,118 C36,108.058874 27.941126,100 18,100 C8.05887401,100 0,108.058874 0,118 C0,127.941126 8.05887401,136 18,136 Z" id="Oval-1-copy-18"></path>
                    <path d="M18,236 C27.941126,236 36,227.941126 36,218 C36,208.058874 27.941126,200 18,200 C8.05887401,200 0,208.058874 0,218 C0,227.941126 8.05887401,236 18,236 Z" id="Oval-1-copy-19"></path>
                    <path d="M18,336 C27.941126,336 36,327.941126 36,318 C36,308.058874 27.941126,300 18,300 C8.05887401,300 0,308.058874 0,318 C0,327.941126 8.05887401,336 18,336 Z" id="Oval-1-copy-20"></path>
                </g>
                <g id="Group-copy-9" transform="translate(1000.000000, 0.000000)">
                    <path d="M18,36 C27.941126,36 36,27.941126 36,18 C36,8.05887401 27.941126,0 18,0 C8.05887401,0 0,8.05887401 0,18 C0,27.941126 8.05887401,36 18,36 Z" id="Oval-1-copy-17"></path>
                    <path d="M18,136 C27.941126,136 36,127.941126 36,118 C36,108.058874 27.941126,100 18,100 C8.05887401,100 0,108.058874 0,118 C0,127.941126 8.05887401,136 18,136 Z" id="Oval-1-copy-18"></path>
                    <path d="M18,236 C27.941126,236 36,227.941126 36,218 C36,208.058874 27.941126,200 18,200 C8.05887401,200 0,208.058874 0,218 C0,227.941126 8.05887401,236 18,236 Z" id="Oval-1-copy-19"></path>
                    <path d="M18,336 C27.941126,336 36,327.941126 36,318 C36,308.058874 27.941126,300 18,300 C8.05887401,300 0,308.058874 0,318 C0,327.941126 8.05887401,336 18,336 Z" id="Oval-1-copy-20"></path>
                </g>
                <g id="Group-copy-10" transform="translate(1100.000000, 0.000000)">
                    <path d="M18,36 C27.941126,36 36,27.941126 36,18 C36,8.05887401 27.941126,0 18,0 C8.05887401,0 0,8.05887401 0,18 C0,27.941126 8.05887401,36 18,36 Z" id="Oval-1-copy-17"></path>
                    <path d="M18,136 C27.941126,136 36,127.941126 36,118 C36,108.058874 27.941126,100 18,100 C8.05887401,100 0,108.058874 0,118 C0,127.941126 8.05887401,136 18,136 Z" id="Oval-1-copy-18"></path>
                    <path d="M18,236 C27.941126,236 36,227.941126 36,218 C36,208.058874 27.941126,200 18,200 C8.05887401,200 0,208.058874 0,218 C0,227.941126 8.05887401,236 18,236 Z" id="Oval-1-copy-19"></path>
                    <path d="M18,336 C27.941126,336 36,327.941126 36,318 C36,308.058874 27.941126,300 18,300 C8.05887401,300 0,308.058874 0,318 C0,327.941126 8.05887401,336 18,336 Z" id="Oval-1-copy-20"></path>
                </g>
            </g>
            <g id="Dots-of-connection" transform="translate(0.000000, 532.000000)" fill="#FFFFFF">
                <g id="Group">
                    <path d="M18,36 C27.941126,36 36,27.941126 36,18 C36,8.05887401 27.941126,0 18,0 C8.05887401,0 0,8.05887401 0,18 C0,27.941126 8.05887401,36 18,36 Z" id="Oval-1-copy-17"></path>
                    <path d="M18,136 C27.941126,136 36,127.941126 36,118 C36,108.058874 27.941126,100 18,100 C8.05887401,100 0,108.058874 0,118 C0,127.941126 8.05887401,136 18,136 Z" id="Oval-1-copy-18"></path>
                    <path d="M18,236 C27.941126,236 36,227.941126 36,218 C36,208.058874 27.941126,200 18,200 C8.05887401,200 0,208.058874 0,218 C0,227.941126 8.05887401,236 18,236 Z" id="Oval-1-copy-19"></path>
                </g>
                <g id="Group-copy-2" transform="translate(300.000000, 0.000000)">
                    <path d="M18,36 C27.941126,36 36,27.941126 36,18 C36,8.05887401 27.941126,0 18,0 C8.05887401,0 0,8.05887401 0,18 C0,27.941126 8.05887401,36 18,36 Z" id="Oval-1-copy-18"></path>
                    <path d="M18,136 C27.941126,136 36,127.941126 36,118 C36,108.058874 27.941126,100 18,100 C8.05887401,100 0,108.058874 0,118 C0,127.941126 8.05887401,136 18,136 Z" id="Oval-1-copy-19"></path>
                    <path d="M18,236 C27.941126,236 36,227.941126 36,218 C36,208.058874 27.941126,200 18,200 C8.05887401,200 0,208.058874 0,218 C0,227.941126 8.05887401,236 18,236 Z" id="Oval-1-copy-20"></path>
                </g>
                <g id="Group-copy-3" transform="translate(200.000000, 0.000000)">
                    <path d="M18,36 C27.941126,36 36,27.941126 36,18 C36,8.05887401 27.941126,0 18,0 C8.05887401,0 0,8.05887401 0,18 C0,27.941126 8.05887401,36 18,36 Z" id="Oval-1-copy-18"></path>
                    <path d="M18,136 C27.941126,136 36,127.941126 36,118 C36,108.058874 27.941126,100 18,100 C8.05887401,100 0,108.058874 0,118 C0,127.941126 8.05887401,136 18,136 Z" id="Oval-1-copy-19"></path>
                    <path d="M18,236 C27.941126,236 36,227.941126 36,218 C36,208.058874 27.941126,200 18,200 C8.05887401,200 0,208.058874 0,218 C0,227.941126 8.05887401,236 18,236 Z" id="Oval-1-copy-20"></path>
                </g>
                <g id="Group-copy-4" transform="translate(100.000000, 0.000000)">
                    <path d="M18,36 C27.941126,36 36,27.941126 36,18 C36,8.05887401 27.941126,0 18,0 C8.05887401,0 0,8.05887401 0,18 C0,27.941126 8.05887401,36 18,36 Z" id="Oval-1-copy-18"></path>
                    <path d="M18,136 C27.941126,136 36,127.941126 36,118 C36,108.058874 27.941126,100 18,100 C8.05887401,100 0,108.058874 0,118 C0,127.941126 8.05887401,136 18,136 Z" id="Oval-1-copy-19"></path>
                    <path d="M18,236 C27.941126,236 36,227.941126 36,218 C36,208.058874 27.941126,200 18,200 C8.05887401,200 0,208.058874 0,218 C0,227.941126 8.05887401,236 18,236 Z" id="Oval-1-copy-20"></path>
                </g>
                <g id="Group-copy-3" transform="translate(400.000000, 0.000000)">
                    <path d="M18,36 C27.941126,36 36,27.941126 36,18 C36,8.05887401 27.941126,0 18,0 C8.05887401,0 0,8.05887401 0,18 C0,27.941126 8.05887401,36 18,36 Z" id="Oval-1-copy-18"></path>
                    <path d="M18,136 C27.941126,136 36,127.941126 36,118 C36,108.058874 27.941126,100 18,100 C8.05887401,100 0,108.058874 0,118 C0,127.941126 8.05887401,136 18,136 Z" id="Oval-1-copy-19"></path>
                    <path d="M18,236 C27.941126,236 36,227.941126 36,218 C36,208.058874 27.941126,200 18,200 C8.05887401,200 0,208.058874 0,218 C0,227.941126 8.05887401,236 18,236 Z" id="Oval-1-copy-20"></path>
                </g>
                <g id="Group-copy-4" transform="translate(500.000000, 0.000000)">
                    <path d="M18,36 C27.941126,36 36,27.941126 36,18 C36,8.05887401 27.941126,0 18,0 C8.05887401,0 0,8.05887401 0,18 C0,27.941126 8.05887401,36 18,36 Z" id="Oval-1-copy-18"></path>
                    <path d="M18,136 C27.941126,136 36,127.941126 36,118 C36,108.058874 27.941126,100 18,100 C8.05887401,100 0,108.058874 0,118 C0,127.941126 8.05887401,136 18,136 Z" id="Oval-1-copy-19"></path>
                    <path d="M18,236 C27.941126,236 36,227.941126 36,218 C36,208.058874 27.941126,200 18,200 C8.05887401,200 0,208.058874 0,218 C0,227.941126 8.05887401,236 18,236 Z" id="Oval-1-copy-20"></path>
                </g>
                <g id="Group-copy-5" transform="translate(600.000000, 0.000000)">
                    <path d="M18,36 C27.941126,36 36,27.941126 36,18 C36,8.05887401 27.941126,0 18,0 C8.05887401,0 0,8.05887401 0,18 C0,27.941126 8.05887401,36 18,36 Z" id="Oval-1-copy-18"></path>
                    <path d="M18,136 C27.941126,136 36,127.941126 36,118 C36,108.058874 27.941126,100 18,100 C8.05887401,100 0,108.058874 0,118 C0,127.941126 8.05887401,136 18,136 Z" id="Oval-1-copy-19"></path>
                    <path d="M18,236 C27.941126,236 36,227.941126 36,218 C36,208.058874 27.941126,200 18,200 C8.05887401,200 0,208.058874 0,218 C0,227.941126 8.05887401,236 18,236 Z" id="Oval-1-copy-20"></path>
                </g>
                <g id="Group-copy-6" transform="translate(700.000000, 0.000000)">
                    <path d="M18,36 C27.941126,36 36,27.941126 36,18 C36,8.05887401 27.941126,0 18,0 C8.05887401,0 0,8.05887401 0,18 C0,27.941126 8.05887401,36 18,36 Z" id="Oval-1-copy-18"></path>
                    <path d="M18,136 C27.941126,136 36,127.941126 36,118 C36,108.058874 27.941126,100 18,100 C8.05887401,100 0,108.058874 0,118 C0,127.941126 8.05887401,136 18,136 Z" id="Oval-1-copy-19"></path>
                    <path d="M18,236 C27.941126,236 36,227.941126 36,218 C36,208.058874 27.941126,200 18,200 C8.05887401,200 0,208.058874 0,218 C0,227.941126 8.05887401,236 18,236 Z" id="Oval-1-copy-20"></path>
                </g>
                <g id="Group-copy-7" transform="translate(800.000000, 0.000000)">
                    <path d="M18,36 C27.941126,36 36,27.941126 36,18 C36,8.05887401 27.941126,0 18,0 C8.05887401,0 0,8.05887401 0,18 C0,27.941126 8.05887401,36 18,36 Z" id="Oval-1-copy-18"></path>
                    <path d="M18,136 C27.941126,136 36,127.941126 36,118 C36,108.058874 27.941126,100 18,100 C8.05887401,100 0,108.058874 0,118 C0,127.941126 8.05887401,136 18,136 Z" id="Oval-1-copy-19"></path>
                    <path d="M18,236 C27.941126,236 36,227.941126 36,218 C36,208.058874 27.941126,200 18,200 C8.05887401,200 0,208.058874 0,218 C0,227.941126 8.05887401,236 18,236 Z" id="Oval-1-copy-20"></path>
                </g>
                <g id="Group-copy-8" transform="translate(900.000000, 0.000000)">
                    <path d="M18,36 C27.941126,36 36,27.941126 36,18 C36,8.05887401 27.941126,0 18,0 C8.05887401,0 0,8.05887401 0,18 C0,27.941126 8.05887401,36 18,36 Z" id="Oval-1-copy-18"></path>
                    <path d="M18,136 C27.941126,136 36,127.941126 36,118 C36,108.058874 27.941126,100 18,100 C8.05887401,100 0,108.058874 0,118 C0,127.941126 8.05887401,136 18,136 Z" id="Oval-1-copy-19"></path>
                    <path d="M18,236 C27.941126,236 36,227.941126 36,218 C36,208.058874 27.941126,200 18,200 C8.05887401,200 0,208.058874 0,218 C0,227.941126 8.05887401,236 18,236 Z" id="Oval-1-copy-20"></path>
                </g>
                <g id="Group-copy-9" transform="translate(1000.000000, 0.000000)">
                    <path d="M18,36 C27.941126,36 36,27.941126 36,18 C36,8.05887401 27.941126,0 18,0 C8.05887401,0 0,8.05887401 0,18 C0,27.941126 8.05887401,36 18,36 Z" id="Oval-1-copy-18"></path>
                    <path d="M18,136 C27.941126,136 36,127.941126 36,118 C36,108.058874 27.941126,100 18,100 C8.05887401,100 0,108.058874 0,118 C0,127.941126 8.05887401,136 18,136 Z" id="Oval-1-copy-19"></path>
                    <path d="M18,236 C27.941126,236 36,227.941126 36,218 C36,208.058874 27.941126,200 18,200 C8.05887401,200 0,208.058874 0,218 C0,227.941126 8.05887401,236 18,236 Z" id="Oval-1-copy-20"></path>
                </g>
                <g id="Group-copy-10" transform="translate(1100.000000, 0.000000)">
                    <path d="M18,36 C27.941126,36 36,27.941126 36,18 C36,8.05887401 27.941126,0 18,0 C8.05887401,0 0,8.05887401 0,18 C0,27.941126 8.05887401,36 18,36 Z" id="Oval-1-copy-18"></path>
                    <path d="M18,136 C27.941126,136 36,127.941126 36,118 C36,108.058874 27.941126,100 18,100 C8.05887401,100 0,108.058874 0,118 C0,127.941126 8.05887401,136 18,136 Z" id="Oval-1-copy-19"></path>
                    <path d="M18,236 C27.941126,236 36,227.941126 36,218 C36,208.058874 27.941126,200 18,200 C8.05887401,200 0,208.058874 0,218 C0,227.941126 8.05887401,236 18,236 Z" id="Oval-1-copy-20"></path>
                </g>
            </g>
        </g>
        <g id="Group" transform="translate(182.000000, 1632.000000)" fill="#FFFFFF">
            <path d="M118,36 C127.941126,36 136,27.941126 136,18 C136,8.05887401 127.941126,0 118,0 C108.058874,0 100,8.05887401 100,18 C100,27.941126 108.058874,36 118,36 Z" id="Oval-1-copy-17"></path>
            <path d="M18,36 C27.941126,36 36,27.941126 36,18 C36,8.05887401 27.941126,0 18,0 C8.05887401,0 0,8.05887401 0,18 C0,27.941126 8.05887401,36 18,36 Z" id="Oval-1-copy-17"></path>
            <path d="M218,36 C227.941126,36 236,27.941126 236,18 C236,8.05887401 227.941126,0 218,0 C208.058874,0 200,8.05887401 200,18 C200,27.941126 208.058874,36 218,36 Z" id="Oval-1-copy-17"></path>
            <path d="M318,36 C327.941126,36 336,27.941126 336,18 C336,8.05887401 327.941126,0 318,0 C308.058874,0 300,8.05887401 300,18 C300,27.941126 308.058874,36 318,36 Z" id="Oval-1-copy-17"></path>
            <path d="M418,36 C427.941126,36 436,27.941126 436,18 C436,8.05887401 427.941126,0 418,0 C408.058874,0 400,8.05887401 400,18 C400,27.941126 408.058874,36 418,36 Z" id="Oval-1-copy-17"></path>
            <path d="M518,36 C527.941126,36 536,27.941126 536,18 C536,8.05887401 527.941126,0 518,0 C508.058874,0 500,8.05887401 500,18 C500,27.941126 508.058874,36 518,36 Z" id="Oval-1-copy-17"></path>
            <path d="M618,36 C627.941126,36 636,27.941126 636,18 C636,8.05887401 627.941126,0 618,0 C608.058874,0 600,8.05887401 600,18 C600,27.941126 608.058874,36 618,36 Z" id="Oval-1-copy-17"></path>
            <path d="M718,36 C727.941126,36 736,27.941126 736,18 C736,8.05887401 727.941126,0 718,0 C708.058874,0 700,8.05887401 700,18 C700,27.941126 708.058874,36 718,36 Z" id="Oval-1-copy-17"></path>
        </g>
        <g id="Dots-of-connection" transform="translate(-18.000000, 1232.000000)" fill="#FFFFFF">
            <g id="Group">
                <path d="M18,36 C27.941126,36 36,27.941126 36,18 C36,8.05887401 27.941126,0 18,0 C8.05887401,0 0,8.05887401 0,18 C0,27.941126 8.05887401,36 18,36 Z" id="Oval-1-copy-16"></path>
                <path d="M18,136 C27.941126,136 36,127.941126 36,118 C36,108.058874 27.941126,100 18,100 C8.05887401,100 0,108.058874 0,118 C0,127.941126 8.05887401,136 18,136 Z" id="Oval-1-copy-17"></path>
                <path d="M18,236 C27.941126,236 36,227.941126 36,218 C36,208.058874 27.941126,200 18,200 C8.05887401,200 0,208.058874 0,218 C0,227.941126 8.05887401,236 18,236 Z" id="Oval-1-copy-18"></path>
                <path d="M18,336 C27.941126,336 36,327.941126 36,318 C36,308.058874 27.941126,300 18,300 C8.05887401,300 0,308.058874 0,318 C0,327.941126 8.05887401,336 18,336 Z" id="Oval-1-copy-19"></path>
            </g>
            <g id="Group-copy-3" transform="translate(200.000000, 0.000000)">
                <path d="M18,36 C27.941126,36 36,27.941126 36,18 C36,8.05887401 27.941126,0 18,0 C8.05887401,0 0,8.05887401 0,18 C0,27.941126 8.05887401,36 18,36 Z" id="Oval-1-copy-17"></path>
                <path d="M18,136 C27.941126,136 36,127.941126 36,118 C36,108.058874 27.941126,100 18,100 C8.05887401,100 0,108.058874 0,118 C0,127.941126 8.05887401,136 18,136 Z" id="Oval-1-copy-18"></path>
                <path d="M18,236 C27.941126,236 36,227.941126 36,218 C36,208.058874 27.941126,200 18,200 C8.05887401,200 0,208.058874 0,218 C0,227.941126 8.05887401,236 18,236 Z" id="Oval-1-copy-19"></path>
                <path d="M18,336 C27.941126,336 36,327.941126 36,318 C36,308.058874 27.941126,300 18,300 C8.05887401,300 0,308.058874 0,318 C0,327.941126 8.05887401,336 18,336 Z" id="Oval-1-copy-20"></path>
            </g>
            <g id="Group-copy-4" transform="translate(100.000000, 0.000000)">
                <path d="M18,36 C27.941126,36 36,27.941126 36,18 C36,8.05887401 27.941126,0 18,0 C8.05887401,0 0,8.05887401 0,18 C0,27.941126 8.05887401,36 18,36 Z" id="Oval-1-copy-17"></path>
                <path d="M18,136 C27.941126,136 36,127.941126 36,118 C36,108.058874 27.941126,100 18,100 C8.05887401,100 0,108.058874 0,118 C0,127.941126 8.05887401,136 18,136 Z" id="Oval-1-copy-18"></path>
                <path d="M18,236 C27.941126,236 36,227.941126 36,218 C36,208.058874 27.941126,200 18,200 C8.05887401,200 0,208.058874 0,218 C0,227.941126 8.05887401,236 18,236 Z" id="Oval-1-copy-19"></path>
                <path d="M18,336 C27.941126,336 36,327.941126 36,318 C36,308.058874 27.941126,300 18,300 C8.05887401,300 0,308.058874 0,318 C0,327.941126 8.05887401,336 18,336 Z" id="Oval-1-copy-20"></path>
            </g>
            <g id="Group-copy-8" transform="translate(900.000000, 0.000000)">
                <path d="M18,36 C27.941126,36 36,27.941126 36,18 C36,8.05887401 27.941126,0 18,0 C8.05887401,0 0,8.05887401 0,18 C0,27.941126 8.05887401,36 18,36 Z" id="Oval-1-copy-17"></path>
                <path d="M18,136 C27.941126,136 36,127.941126 36,118 C36,108.058874 27.941126,100 18,100 C8.05887401,100 0,108.058874 0,118 C0,127.941126 8.05887401,136 18,136 Z" id="Oval-1-copy-18"></path>
                <path d="M18,236 C27.941126,236 36,227.941126 36,218 C36,208.058874 27.941126,200 18,200 C8.05887401,200 0,208.058874 0,218 C0,227.941126 8.05887401,236 18,236 Z" id="Oval-1-copy-19"></path>
                <path d="M18,336 C27.941126,336 36,327.941126 36,318 C36,308.058874 27.941126,300 18,300 C8.05887401,300 0,308.058874 0,318 C0,327.941126 8.05887401,336 18,336 Z" id="Oval-1-copy-20"></path>
            </g>
            <g id="Group-copy-9" transform="translate(1000.000000, 0.000000)">
                <path d="M18,36 C27.941126,36 36,27.941126 36,18 C36,8.05887401 27.941126,0 18,0 C8.05887401,0 0,8.05887401 0,18 C0,27.941126 8.05887401,36 18,36 Z" id="Oval-1-copy-17"></path>
                <path d="M18,136 C27.941126,136 36,127.941126 36,118 C36,108.058874 27.941126,100 18,100 C8.05887401,100 0,108.058874 0,118 C0,127.941126 8.05887401,136 18,136 Z" id="Oval-1-copy-18"></path>
                <path d="M18,236 C27.941126,236 36,227.941126 36,218 C36,208.058874 27.941126,200 18,200 C8.05887401,200 0,208.058874 0,218 C0,227.941126 8.05887401,236 18,236 Z" id="Oval-1-copy-19"></path>
                <path d="M18,336 C27.941126,336 36,327.941126 36,318 C36,308.058874 27.941126,300 18,300 C8.05887401,300 0,308.058874 0,318 C0,327.941126 8.05887401,336 18,336 Z" id="Oval-1-copy-20"></path>
            </g>
            <g id="Group-copy-10" transform="translate(1100.000000, 0.000000)">
                <path d="M18,36 C27.941126,36 36,27.941126 36,18 C36,8.05887401 27.941126,0 18,0 C8.05887401,0 0,8.05887401 0,18 C0,27.941126 8.05887401,36 18,36 Z" id="Oval-1-copy-17"></path>
                <path d="M18,136 C27.941126,136 36,127.941126 36,118 C36,108.058874 27.941126,100 18,100 C8.05887401,100 0,108.058874 0,118 C0,127.941126 8.05887401,136 18,136 Z" id="Oval-1-copy-18"></path>
                <path d="M18,236 C27.941126,236 36,227.941126 36,218 C36,208.058874 27.941126,200 18,200 C8.05887401,200 0,208.058874 0,218 C0,227.941126 8.05887401,236 18,236 Z" id="Oval-1-copy-19"></path>
                <path d="M18,336 C27.941126,336 36,327.941126 36,318 C36,308.058874 27.941126,300 18,300 C8.05887401,300 0,308.058874 0,318 C0,327.941126 8.05887401,336 18,336 Z" id="Oval-1-copy-20"></path>
            </g>
            <g id="Group-copy-2" transform="translate(300.000000, 0.000000)">
                <path d="M18,136 C27.941126,136 36,127.941126 36,118 C36,108.058874 27.941126,100 18,100 C8.05887401,100 0,108.058874 0,118 C0,127.941126 8.05887401,136 18,136 Z" id="Oval-1-copy-18"></path>
                <path d="M18,236 C27.941126,236 36,227.941126 36,218 C36,208.058874 27.941126,200 18,200 C8.05887401,200 0,208.058874 0,218 C0,227.941126 8.05887401,236 18,236 Z" id="Oval-1-copy-19"></path>
                <path d="M18,336 C27.941126,336 36,327.941126 36,318 C36,308.058874 27.941126,300 18,300 C8.05887401,300 0,308.058874 0,318 C0,327.941126 8.05887401,336 18,336 Z" id="Oval-1-copy-20"></path>
                <path d="M18,36 C27.941126,36 36,27.941126 36,18 C36,8.05887401 27.941126,0 18,0 C8.05887401,0 0,8.05887401 0,18 C0,27.941126 8.05887401,36 18,36 Z" id="Oval-1-copy-17"></path>
            </g>
            <g id="Group-copy-3" transform="translate(400.000000, 0.000000)">
                <path d="M18,36 C27.941126,36 36,27.941126 36,18 C36,8.05887401 27.941126,0 18,0 C8.05887401,0 0,8.05887401 0,18 C0,27.941126 8.05887401,36 18,36 Z" id="Oval-1-copy-17"></path>
                <path d="M18,136 C27.941126,136 36,127.941126 36,118 C36,108.058874 27.941126,100 18,100 C8.05887401,100 0,108.058874 0,118 C0,127.941126 8.05887401,136 18,136 Z" id="Oval-1-copy-18"></path>
                <path d="M18,236 C27.941126,236 36,227.941126 36,218 C36,208.058874 27.941126,200 18,200 C8.05887401,200 0,208.058874 0,218 C0,227.941126 8.05887401,236 18,236 Z" id="Oval-1-copy-19"></path>
                <path d="M18,336 C27.941126,336 36,327.941126 36,318 C36,308.058874 27.941126,300 18,300 C8.05887401,300 0,308.058874 0,318 C0,327.941126 8.05887401,336 18,336 Z" id="Oval-1-copy-20"></path>
            </g>
            <g id="Group-copy-4" transform="translate(500.000000, 0.000000)">
                <path d="M18,36 C27.941126,36 36,27.941126 36,18 C36,8.05887401 27.941126,0 18,0 C8.05887401,0 0,8.05887401 0,18 C0,27.941126 8.05887401,36 18,36 Z" id="Oval-1-copy-17"></path>
                <path d="M18,136 C27.941126,136 36,127.941126 36,118 C36,108.058874 27.941126,100 18,100 C8.05887401,100 0,108.058874 0,118 C0,127.941126 8.05887401,136 18,136 Z" id="Oval-1-copy-18"></path>
                <path d="M18,236 C27.941126,236 36,227.941126 36,218 C36,208.058874 27.941126,200 18,200 C8.05887401,200 0,208.058874 0,218 C0,227.941126 8.05887401,236 18,236 Z" id="Oval-1-copy-19"></path>
                <path d="M18,336 C27.941126,336 36,327.941126 36,318 C36,308.058874 27.941126,300 18,300 C8.05887401,300 0,308.058874 0,318 C0,327.941126 8.05887401,336 18,336 Z" id="Oval-1-copy-20"></path>
            </g>
            <g id="Group-copy-5" transform="translate(600.000000, 0.000000)">
                <path d="M18,36 C27.941126,36 36,27.941126 36,18 C36,8.05887401 27.941126,0 18,0 C8.05887401,0 0,8.05887401 0,18 C0,27.941126 8.05887401,36 18,36 Z" id="Oval-1-copy-17"></path>
                <path d="M18,136 C27.941126,136 36,127.941126 36,118 C36,108.058874 27.941126,100 18,100 C8.05887401,100 0,108.058874 0,118 C0,127.941126 8.05887401,136 18,136 Z" id="Oval-1-copy-18"></path>
                <path d="M18,236 C27.941126,236 36,227.941126 36,218 C36,208.058874 27.941126,200 18,200 C8.05887401,200 0,208.058874 0,218 C0,227.941126 8.05887401,236 18,236 Z" id="Oval-1-copy-19"></path>
                <path d="M18,336 C27.941126,336 36,327.941126 36,318 C36,308.058874 27.941126,300 18,300 C8.05887401,300 0,308.058874 0,318 C0,327.941126 8.05887401,336 18,336 Z" id="Oval-1-copy-20"></path>
            </g>
            <g id="Group-copy-6" transform="translate(700.000000, 0.000000)">
                <path d="M18,36 C27.941126,36 36,27.941126 36,18 C36,8.05887401 27.941126,0 18,0 C8.05887401,0 0,8.05887401 0,18 C0,27.941126 8.05887401,36 18,36 Z" id="Oval-1-copy-17"></path>
                <path d="M18,136 C27.941126,136 36,127.941126 36,118 C36,108.058874 27.941126,100 18,100 C8.05887401,100 0,108.058874 0,118 C0,127.941126 8.05887401,136 18,136 Z" id="Oval-1-copy-18"></path>
                <path d="M18,236 C27.941126,236 36,227.941126 36,218 C36,208.058874 27.941126,200 18,200 C8.05887401,200 0,208.058874 0,218 C0,227.941126 8.05887401,236 18,236 Z" id="Oval-1-copy-19"></path>
                <path d="M18,336 C27.941126,336 36,327.941126 36,318 C36,308.058874 27.941126,300 18,300 C8.05887401,300 0,308.058874 0,318 C0,327.941126 8.05887401,336 18,336 Z" id="Oval-1-copy-20"></path>
            </g>
            <g id="Group-copy-7" transform="translate(800.000000, 0.000000)">
                <path d="M18,36 C27.941126,36 36,27.941126 36,18 C36,8.05887401 27.941126,0 18,0 C8.05887401,0 0,8.05887401 0,18 C0,27.941126 8.05887401,36 18,36 Z" id="Oval-1-copy-17"></path>
                <path d="M18,136 C27.941126,136 36,127.941126 36,118 C36,108.058874 27.941126,100 18,100 C8.05887401,100 0,108.058874 0,118 C0,127.941126 8.05887401,136 18,136 Z" id="Oval-1-copy-18"></path>
                <path d="M18,236 C27.941126,236 36,227.941126 36,218 C36,208.058874 27.941126,200 18,200 C8.05887401,200 0,208.058874 0,218 C0,227.941126 8.05887401,236 18,236 Z" id="Oval-1-copy-19"></path>
                <path d="M18,336 C27.941126,336 36,327.941126 36,318 C36,308.058874 27.941126,300 18,300 C8.05887401,300 0,308.058874 0,318 C0,327.941126 8.05887401,336 18,336 Z" id="Oval-1-copy-20"></path>
            </g>
        </g>
        <g id="Dots-of-connection" transform="translate(-18.000000, 832.000000)" fill="#FFFFFF">
            <g id="Group">
                <path d="M18,36 C27.941126,36 36,27.941126 36,18 C36,8.05887401 27.941126,0 18,0 C8.05887401,0 0,8.05887401 0,18 C0,27.941126 8.05887401,36 18,36 Z" id="Oval-1-copy-16"></path>
                <path d="M18,136 C27.941126,136 36,127.941126 36,118 C36,108.058874 27.941126,100 18,100 C8.05887401,100 0,108.058874 0,118 C0,127.941126 8.05887401,136 18,136 Z" id="Oval-1-copy-17"></path>
                <path d="M18,236 C27.941126,236 36,227.941126 36,218 C36,208.058874 27.941126,200 18,200 C8.05887401,200 0,208.058874 0,218 C0,227.941126 8.05887401,236 18,236 Z" id="Oval-1-copy-18"></path>
                <path d="M18,336 C27.941126,336 36,327.941126 36,318 C36,308.058874 27.941126,300 18,300 C8.05887401,300 0,308.058874 0,318 C0,327.941126 8.05887401,336 18,336 Z" id="Oval-1-copy-19"></path>
            </g>
            <g id="Group-copy-2" transform="translate(300.000000, 0.000000)">
                <path d="M18,36 C27.941126,36 36,27.941126 36,18 C36,8.05887401 27.941126,0 18,0 C8.05887401,0 0,8.05887401 0,18 C0,27.941126 8.05887401,36 18,36 Z" id="Oval-1-copy-17"></path>
                <path d="M18,136 C27.941126,136 36,127.941126 36,118 C36,108.058874 27.941126,100 18,100 C8.05887401,100 0,108.058874 0,118 C0,127.941126 8.05887401,136 18,136 Z" id="Oval-1-copy-18"></path>
                <path d="M18,236 C27.941126,236 36,227.941126 36,218 C36,208.058874 27.941126,200 18,200 C8.05887401,200 0,208.058874 0,218 C0,227.941126 8.05887401,236 18,236 Z" id="Oval-1-copy-19"></path>
                <path d="M18,336 C27.941126,336 36,327.941126 36,318 C36,308.058874 27.941126,300 18,300 C8.05887401,300 0,308.058874 0,318 C0,327.941126 8.05887401,336 18,336 Z" id="Oval-1-copy-20"></path>
            </g>
            <g id="Group-copy-3" transform="translate(200.000000, 0.000000)">
                <path d="M18,36 C27.941126,36 36,27.941126 36,18 C36,8.05887401 27.941126,0 18,0 C8.05887401,0 0,8.05887401 0,18 C0,27.941126 8.05887401,36 18,36 Z" id="Oval-1-copy-17"></path>
                <path d="M18,136 C27.941126,136 36,127.941126 36,118 C36,108.058874 27.941126,100 18,100 C8.05887401,100 0,108.058874 0,118 C0,127.941126 8.05887401,136 18,136 Z" id="Oval-1-copy-18"></path>
                <path d="M18,236 C27.941126,236 36,227.941126 36,218 C36,208.058874 27.941126,200 18,200 C8.05887401,200 0,208.058874 0,218 C0,227.941126 8.05887401,236 18,236 Z" id="Oval-1-copy-19"></path>
                <path d="M18,336 C27.941126,336 36,327.941126 36,318 C36,308.058874 27.941126,300 18,300 C8.05887401,300 0,308.058874 0,318 C0,327.941126 8.05887401,336 18,336 Z" id="Oval-1-copy-20"></path>
            </g>
            <g id="Group-copy-4" transform="translate(100.000000, 0.000000)">
                <path d="M18,36 C27.941126,36 36,27.941126 36,18 C36,8.05887401 27.941126,0 18,0 C8.05887401,0 0,8.05887401 0,18 C0,27.941126 8.05887401,36 18,36 Z" id="Oval-1-copy-17"></path>
                <path d="M18,136 C27.941126,136 36,127.941126 36,118 C36,108.058874 27.941126,100 18,100 C8.05887401,100 0,108.058874 0,118 C0,127.941126 8.05887401,136 18,136 Z" id="Oval-1-copy-18"></path>
                <path d="M18,236 C27.941126,236 36,227.941126 36,218 C36,208.058874 27.941126,200 18,200 C8.05887401,200 0,208.058874 0,218 C0,227.941126 8.05887401,236 18,236 Z" id="Oval-1-copy-19"></path>
                <path d="M18,336 C27.941126,336 36,327.941126 36,318 C36,308.058874 27.941126,300 18,300 C8.05887401,300 0,308.058874 0,318 C0,327.941126 8.05887401,336 18,336 Z" id="Oval-1-copy-20"></path>
            </g>
            <g id="Group-copy-3" transform="translate(400.000000, 0.000000)">
                <path d="M18,36 C27.941126,36 36,27.941126 36,18 C36,8.05887401 27.941126,0 18,0 C8.05887401,0 0,8.05887401 0,18 C0,27.941126 8.05887401,36 18,36 Z" id="Oval-1-copy-17"></path>
                <path d="M18,136 C27.941126,136 36,127.941126 36,118 C36,108.058874 27.941126,100 18,100 C8.05887401,100 0,108.058874 0,118 C0,127.941126 8.05887401,136 18,136 Z" id="Oval-1-copy-18" opacity="0.8"></path>
                <path d="M18,236 C27.941126,236 36,227.941126 36,218 C36,208.058874 27.941126,200 18,200 C8.05887401,200 0,208.058874 0,218 C0,227.941126 8.05887401,236 18,236 Z" id="Oval-1-copy-19"></path>
                <path d="M18,336 C27.941126,336 36,327.941126 36,318 C36,308.058874 27.941126,300 18,300 C8.05887401,300 0,308.058874 0,318 C0,327.941126 8.05887401,336 18,336 Z" id="Oval-1-copy-20"></path>
            </g>
            <g id="Group-copy-4" transform="translate(500.000000, 0.000000)">
                <path d="M18,36 C27.941126,36 36,27.941126 36,18 C36,8.05887401 27.941126,0 18,0 C8.05887401,0 0,8.05887401 0,18 C0,27.941126 8.05887401,36 18,36 Z" id="Oval-1-copy-17"></path>
                <path d="M18,136 C27.941126,136 36,127.941126 36,118 C36,108.058874 27.941126,100 18,100 C8.05887401,100 0,108.058874 0,118 C0,127.941126 8.05887401,136 18,136 Z" id="Oval-1-copy-18"></path>
                <path d="M18,236 C27.941126,236 36,227.941126 36,218 C36,208.058874 27.941126,200 18,200 C8.05887401,200 0,208.058874 0,218 C0,227.941126 8.05887401,236 18,236 Z" id="Oval-1-copy-19"></path>
                <path d="M18,336 C27.941126,336 36,327.941126 36,318 C36,308.058874 27.941126,300 18,300 C8.05887401,300 0,308.058874 0,318 C0,327.941126 8.05887401,336 18,336 Z" id="Oval-1-copy-20"></path>
            </g>
            <g id="Group-copy-5" transform="translate(600.000000, 0.000000)">
                <path d="M18,36 C27.941126,36 36,27.941126 36,18 C36,8.05887401 27.941126,0 18,0 C8.05887401,0 0,8.05887401 0,18 C0,27.941126 8.05887401,36 18,36 Z" id="Oval-1-copy-17"></path>
                <path d="M18,136 C27.941126,136 36,127.941126 36,118 C36,108.058874 27.941126,100 18,100 C8.05887401,100 0,108.058874 0,118 C0,127.941126 8.05887401,136 18,136 Z" id="Oval-1-copy-18"></path>
                <path d="M18,236 C27.941126,236 36,227.941126 36,218 C36,208.058874 27.941126,200 18,200 C8.05887401,200 0,208.058874 0,218 C0,227.941126 8.05887401,236 18,236 Z" id="Oval-1-copy-19"></path>
                <path d="M18,336 C27.941126,336 36,327.941126 36,318 C36,308.058874 27.941126,300 18,300 C8.05887401,300 0,308.058874 0,318 C0,327.941126 8.05887401,336 18,336 Z" id="Oval-1-copy-20"></path>
            </g>
            <g id="Group-copy-6" transform="translate(700.000000, 0.000000)">
                <path d="M18,36 C27.941126,36 36,27.941126 36,18 C36,8.05887401 27.941126,0 18,0 C8.05887401,0 0,8.05887401 0,18 C0,27.941126 8.05887401,36 18,36 Z" id="Oval-1-copy-17"></path>
                <path d="M18,136 C27.941126,136 36,127.941126 36,118 C36,108.058874 27.941126,100 18,100 C8.05887401,100 0,108.058874 0,118 C0,127.941126 8.05887401,136 18,136 Z" id="Oval-1-copy-18"></path>
                <path d="M18,236 C27.941126,236 36,227.941126 36,218 C36,208.058874 27.941126,200 18,200 C8.05887401,200 0,208.058874 0,218 C0,227.941126 8.05887401,236 18,236 Z" id="Oval-1-copy-19"></path>
                <path d="M18,336 C27.941126,336 36,327.941126 36,318 C36,308.058874 27.941126,300 18,300 C8.05887401,300 0,308.058874 0,318 C0,327.941126 8.05887401,336 18,336 Z" id="Oval-1-copy-20"></path>
            </g>
            <g id="Group-copy-7" transform="translate(800.000000, 0.000000)">
                <path d="M18,36 C27.941126,36 36,27.941126 36,18 C36,8.05887401 27.941126,0 18,0 C8.05887401,0 0,8.05887401 0,18 C0,27.941126 8.05887401,36 18,36 Z" id="Oval-1-copy-17"></path>
                <path d="M18,136 C27.941126,136 36,127.941126 36,118 C36,108.058874 27.941126,100 18,100 C8.05887401,100 0,108.058874 0,118 C0,127.941126 8.05887401,136 18,136 Z" id="Oval-1-copy-18"></path>
                <path d="M18,236 C27.941126,236 36,227.941126 36,218 C36,208.058874 27.941126,200 18,200 C8.05887401,200 0,208.058874 0,218 C0,227.941126 8.05887401,236 18,236 Z" id="Oval-1-copy-19"></path>
                <path d="M18,336 C27.941126,336 36,327.941126 36,318 C36,308.058874 27.941126,300 18,300 C8.05887401,300 0,308.058874 0,318 C0,327.941126 8.05887401,336 18,336 Z" id="Oval-1-copy-20"></path>
            </g>
            <g id="Group-copy-8" transform="translate(900.000000, 0.000000)">
                <path d="M18,36 C27.941126,36 36,27.941126 36,18 C36,8.05887401 27.941126,0 18,0 C8.05887401,0 0,8.05887401 0,18 C0,27.941126 8.05887401,36 18,36 Z" id="Oval-1-copy-17"></path>
                <path d="M18,136 C27.941126,136 36,127.941126 36,118 C36,108.058874 27.941126,100 18,100 C8.05887401,100 0,108.058874 0,118 C0,127.941126 8.05887401,136 18,136 Z" id="Oval-1-copy-18"></path>
                <path d="M18,236 C27.941126,236 36,227.941126 36,218 C36,208.058874 27.941126,200 18,200 C8.05887401,200 0,208.058874 0,218 C0,227.941126 8.05887401,236 18,236 Z" id="Oval-1-copy-19"></path>
                <path d="M18,336 C27.941126,336 36,327.941126 36,318 C36,308.058874 27.941126,300 18,300 C8.05887401,300 0,308.058874 0,318 C0,327.941126 8.05887401,336 18,336 Z" id="Oval-1-copy-20"></path>
            </g>
            <g id="Group-copy-9" transform="translate(1000.000000, 0.000000)">
                <path d="M18,36 C27.941126,36 36,27.941126 36,18 C36,8.05887401 27.941126,0 18,0 C8.05887401,0 0,8.05887401 0,18 C0,27.941126 8.05887401,36 18,36 Z" id="Oval-1-copy-17"></path>
                <path d="M18,136 C27.941126,136 36,127.941126 36,118 C36,108.058874 27.941126,100 18,100 C8.05887401,100 0,108.058874 0,118 C0,127.941126 8.05887401,136 18,136 Z" id="Oval-1-copy-18"></path>
                <path d="M18,236 C27.941126,236 36,227.941126 36,218 C36,208.058874 27.941126,200 18,200 C8.05887401,200 0,208.058874 0,218 C0,227.941126 8.05887401,236 18,236 Z" id="Oval-1-copy-19"></path>
                <path d="M18,336 C27.941126,336 36,327.941126 36,318 C36,308.058874 27.941126,300 18,300 C8.05887401,300 0,308.058874 0,318 C0,327.941126 8.05887401,336 18,336 Z" id="Oval-1-copy-20"></path>
            </g>
            <g id="Group-copy-10" transform="translate(1100.000000, 0.000000)">
                <path d="M18,36 C27.941126,36 36,27.941126 36,18 C36,8.05887401 27.941126,0 18,0 C8.05887401,0 0,8.05887401 0,18 C0,27.941126 8.05887401,36 18,36 Z" id="Oval-1-copy-17"></path>
                <path d="M18,136 C27.941126,136 36,127.941126 36,118 C36,108.058874 27.941126,100 18,100 C8.05887401,100 0,108.058874 0,118 C0,127.941126 8.05887401,136 18,136 Z" id="Oval-1-copy-18"></path>
                <path d="M18,236 C27.941126,236 36,227.941126 36,218 C36,208.058874 27.941126,200 18,200 C8.05887401,200 0,208.058874 0,218 C0,227.941126 8.05887401,236 18,236 Z" id="Oval-1-copy-19"></path>
                <path d="M18,336 C27.941126,336 36,327.941126 36,318 C36,308.058874 27.941126,300 18,300 C8.05887401,300 0,308.058874 0,318 C0,327.941126 8.05887401,336 18,336 Z" id="Oval-1-copy-20"></path>
            </g>
        </g>
        <g id="Group-3" transform="translate(-18.000000, 32.000000)" fill="#FFFFFF">
            <path d="M18,36 C27.941126,36 36,27.941126 36,18 C36,8.05887401 27.941126,0 18,0 C8.05887401,0 0,8.05887401 0,18 C0,27.941126 8.05887401,36 18,36 Z" id="Oval-1-copy-16"></path>
            <path d="M318,36 C327.941126,36 336,27.941126 336,18 C336,8.05887401 327.941126,0 318,0 C308.058874,0 300,8.05887401 300,18 C300,27.941126 308.058874,36 318,36 Z" id="Oval-1-copy-17"></path>
            <path d="M218,36 C227.941126,36 236,27.941126 236,18 C236,8.05887401 227.941126,0 218,0 C208.058874,0 200,8.05887401 200,18 C200,27.941126 208.058874,36 218,36 Z" id="Oval-1-copy-17"></path>
            <path d="M118,36 C127.941126,36 136,27.941126 136,18 C136,8.05887401 127.941126,0 118,0 C108.058874,0 100,8.05887401 100,18 C100,27.941126 108.058874,36 118,36 Z" id="Oval-1-copy-17"></path>
            <path d="M418,36 C427.941126,36 436,27.941126 436,18 C436,8.05887401 427.941126,0 418,0 C408.058874,0 400,8.05887401 400,18 C400,27.941126 408.058874,36 418,36 Z" id="Oval-1-copy-17"></path>
            <path d="M518,36 C527.941126,36 536,27.941126 536,18 C536,8.05887401 527.941126,0 518,0 C508.058874,0 500,8.05887401 500,18 C500,27.941126 508.058874,36 518,36 Z" id="Oval-1-copy-17"></path>
            <path d="M618,36 C627.941126,36 636,27.941126 636,18 C636,8.05887401 627.941126,0 618,0 C608.058874,0 600,8.05887401 600,18 C600,27.941126 608.058874,36 618,36 Z" id="Oval-1-copy-17"></path>
            <path d="M718,36 C727.941126,36 736,27.941126 736,18 C736,8.05887401 727.941126,0 718,0 C708.058874,0 700,8.05887401 700,18 C700,27.941126 708.058874,36 718,36 Z" id="Oval-1-copy-17"></path>
            <path d="M818,36 C827.941126,36 836,27.941126 836,18 C836,8.05887401 827.941126,0 818,0 C808.058874,0 800,8.05887401 800,18 C800,27.941126 808.058874,36 818,36 Z" id="Oval-1-copy-17"></path>
            <path d="M918,36 C927.941126,36 936,27.941126 936,18 C936,8.05887401 927.941126,0 918,0 C908.058874,0 900,8.05887401 900,18 C900,27.941126 908.058874,36 918,36 Z" id="Oval-1-copy-17"></path>
            <path d="M1018,36 C1027.94113,36 1036,27.941126 1036,18 C1036,8.05887401 1027.94113,0 1018,0 C1008.05887,0 1000,8.05887401 1000,18 C1000,27.941126 1008.05887,36 1018,36 Z" id="Oval-1-copy-17"></path>
            <path d="M1118,36 C1127.94113,36 1136,27.941126 1136,18 C1136,8.05887401 1127.94113,0 1118,0 C1108.05887,0 1100,8.05887401 1100,18 C1100,27.941126 1108.05887,36 1118,36 Z" id="Oval-1-copy-17"></path>
        </g>
    </g>
</svg>