<?xml version="1.0" encoding="UTF-8" standalone="no"?>
<svg width="40px" height="40px" viewBox="0 0 40 40" version="1.1" xmlns="http://www.w3.org/2000/svg" xmlns:xlink="http://www.w3.org/1999/xlink">
    <!-- Generator: Sketch 43.2 (39069) - http://www.bohemiancoding.com/sketch -->
    <title>Slice Copy 3notext</title>
    <desc>Created with Sketch.</desc>
    <defs>
        <path d="M0.001,8 C0.001,12.418 3.582,16 8,16 C12.418,16 16,12.418 16,8 C16,3.582 12.418,0 8,0 C3.582,0 0.001,3.582 0.001,8 Z" id="path-1"></path>
    </defs>
    <g id="Upcoming-Events-More-Simplified-Copy" stroke="none" stroke-width="1" fill="none" fill-rule="evenodd">
        <path d="M18.8748,0 L21.1248,0 L20.8758,4.999 L19.1248,4.999 L18.8748,0 Z M13.7367,0.972 L15.9107,0.391 L16.9637,5.285 L15.2727,5.737 L13.7367,0.972 Z M13.2575,6.5718 L11.7425,7.4468 L9.0255,3.2418 L10.9745,2.1168 L13.2575,6.5718 Z M10.0119,8.774 L8.7749,10.011 L5.0619,6.653 L6.6539,5.062 L10.0119,8.774 Z M7.447,11.7417 L6.572,13.2577 L2.117,10.9737 L3.242,9.0247 L7.447,11.7417 Z M0.3906,15.9093 L0.9726,13.7363 L5.7376,15.2723 L5.2846,16.9623 L0.3906,15.9093 Z M0,21.1248 L0,18.8748 L5,19.1238 L5,20.8748 L0,21.1248 Z M0.3906,24.0894 L5.2846,23.0364 L5.7376,24.7274 L0.9726,26.2624 L0.3906,24.0894 Z M6.572,26.7417 L7.447,28.2577 L3.242,30.9737 L2.117,29.0247 L6.572,26.7417 Z M8.7746,29.9878 L10.0116,31.2248 L6.6536,34.9368 L5.0626,33.3458 L8.7746,29.9878 Z M11.7424,32.5523 L13.2574,33.4273 L10.9744,37.8823 L9.0254,36.7573 L11.7424,32.5523 Z M13.7367,39.0267 L15.2727,34.2617 L16.9637,34.7157 L15.9107,39.6087 L13.7367,39.0267 Z M19.125,34.9992 L20.876,34.9992 L21.125,39.9992 L18.875,39.9992 L19.125,34.9992 Z M23.0373,34.7157 L24.7273,34.2617 L26.2633,39.0267 L24.0893,39.6087 L23.0373,34.7157 Z M26.7424,33.4273 L28.2574,32.5523 L30.9744,36.7573 L29.0254,37.8823 L26.7424,33.4273 Z M29.988,31.2251 L31.225,29.9881 L34.938,33.3461 L33.346,34.9371 L29.988,31.2251 Z M32.5529,28.2574 L33.4279,26.7414 L37.8829,29.0254 L36.7579,30.9744 L32.5529,28.2574 Z M34.2621,24.7275 L34.7161,23.0365 L39.6101,24.0895 L39.0281,26.2625 L34.2621,24.7275 Z M35.0001,19.1241 L39.9991,18.8751 L39.9991,21.1251 L35.0001,20.8751 L35.0001,19.1241 Z M34.2621,15.2721 L39.0281,13.7371 L39.6101,15.9091 L34.7161,16.9621 L34.2621,15.2721 Z M33.4279,13.2574 L32.5529,11.7414 L36.7579,9.0254 L37.8829,10.9744 L33.4279,13.2574 Z M31.2253,10.0113 L29.9883,8.7743 L33.3463,5.0623 L34.9373,6.6533 L31.2253,10.0113 Z M28.2575,7.4468 L26.7425,6.5718 L29.0255,2.1168 L30.9745,3.2418 L28.2575,7.4468 Z M23.0373,5.2848 L24.0893,0.3908 L26.2633,0.9718 L24.7273,5.7368 L23.0373,5.2848 Z" id="Combined-Shape-Copy" fill="#318BFF"></path>
        <g id="Group-30-Copy" transform="translate(12.000000, 12.000000)">
            <mask id="mask-2" fill="white">
                <use xlink:href="#path-1"></use>
            </mask>
            <g id="Clip-26"></g>
            <polygon id="Fill-25" fill="#328CFF" mask="url(#mask-2)" points="12 16 14 16 14 0 12 0"></polygon>
            <polygon id="Fill-27" fill="#328CFF" mask="url(#mask-2)" points="7 16 9 16 9 0 7 0"></polygon>
            <polygon id="Fill-28" fill="#328CFF" mask="url(#mask-2)" points="2 16 4 16 4 0 2 0"></polygon>
        </g>
        <path d="M31,20.0005122 C31,13.9252585 26.0750319,9 20.0005122,9 C13.9244559,9 9,13.9247463 9,20.0005122 C9,26.0762781 13.9244559,31.0010244 20.0005122,31.0010244 C26.0750319,31.0010244 31,26.0757659 31,20.0005122 Z M33,20.0005122 C33,27.180309 27.1796278,33.0010244 20.0005122,33.0010244 C12.81986,33.0010244 7,27.1808212 7,20.0005122 C7,12.8202032 12.81986,7 20.0005122,7 C27.1796278,7 33,12.8207154 33,20.0005122 Z" id="Stroke-31-Copy" fill="#3B91FF" fill-rule="nonzero"></path>
    </g>
</svg>